<svg width="94" height="18" viewBox="0 0 94 18" fill="none" xmlns="http://www.w3.org/2000/svg">
<path d="M10.7544 13.0784L8.6958 14.0898V6.49625L10.7544 5.48485V13.0784ZM13.5491 11.7058L11.4905 12.7172V5.12364L13.5491 4.11224V11.7058ZM14.2852 11.3445V3.75103L16.3437 2.73962V10.3332L14.2852 11.3445Z" fill="white"/>
<path d="M7.97593 12.0428V14.0857L0.332031 10.3331V8.29019L7.97593 12.0428ZM7.97593 9.26547V11.3083L0.332031 7.55572V5.51285L7.97593 9.26547ZM7.97593 6.49215V8.53501L0.332031 4.7824V2.73953L7.97593 6.49215Z" fill="white"/>
<path d="M21.2056 0.332764V12.0599H27.2059C30.0204 12.0599 31.8186 10.7894 31.8186 8.7763C31.8186 7.29086 30.9 6.11816 29.4536 5.82498C30.6654 5.47317 31.4472 4.47636 31.4472 3.30365C31.4472 1.50549 29.6882 0.352328 26.9518 0.352328H21.2056V0.332764ZM24.6651 2.95182H26.7759C27.46 2.95182 27.89 3.32318 27.89 3.92908C27.89 4.55453 27.46 4.94545 26.7759 4.94545H24.6651V2.95182ZM24.6651 7.31041H26.7759C27.6555 7.31041 28.2223 7.7013 28.2223 8.34629C28.2223 9.03037 27.675 9.46038 26.7759 9.46038H24.6651V7.31041Z" fill="white"/>
<path d="M37.389 0.332764H33.9099V12.0599H37.389V0.332764Z" fill="white"/>
<path d="M48.5111 3.10819V0.332764H39.5007V3.10819H42.2566V12.0599H45.7552V3.10819H48.5111Z" fill="white"/>
<path d="M56.0453 0.235046C52.4099 0.235046 49.7322 2.75638 49.7322 6.17679C49.7322 9.63628 52.3512 12.2163 55.928 12.2163C57.7066 12.2163 59.622 11.3367 60.8925 9.94901L58.8793 7.79905C58.078 8.61994 56.9834 9.14767 56.0844 9.14767C54.5012 9.14767 53.2894 7.83814 53.2894 6.11816C53.2894 4.39819 54.5012 3.1082 56.0844 3.1082C57.0616 3.1082 58.1366 3.73365 58.8793 4.67182L60.8925 2.30685C59.7002 1.03642 57.8043 0.235046 56.0453 0.235046Z" fill="white"/>
<path d="M68.1435 0.234924C64.469 0.234924 61.7522 2.73671 61.7522 6.1962C61.7522 9.6557 64.469 12.2161 68.1435 12.2161C71.818 12.2161 74.5347 9.63616 74.5347 6.1962C74.5347 2.75625 71.818 0.234924 68.1435 0.234924ZM68.2021 3.14716C69.7462 3.14716 70.9775 4.43716 70.9775 6.21577C70.9775 7.99438 69.7462 9.30389 68.2021 9.30389C66.658 9.30389 65.329 7.97483 65.329 6.21577C65.329 4.4567 66.6385 3.14716 68.2021 3.14716Z" fill="white"/>
<path d="M79.9876 0.332642H76.5085V12.0597H79.9876V0.332642Z" fill="white"/>
<path d="M93.2089 12.0597V0.332642H90.023V6.88028L85.0585 0.332642H82.0876V12.0597H85.2735V5.53168L90.238 12.0597H93.2089Z" fill="white"/>
<path d="M24.5227 17.0398V14.1198H23.4967L22.8541 15.6418L22.2115 14.1198H21.1855V17.0398H22.0311V15.4388L22.5272 16.7579H23.1585L23.6546 15.4388V17.0398H24.5227Z" fill="white"/>
<path d="M27.0934 16.6334L27.2399 17.0506H28.2659L27.0821 14.1306H26.09L24.8611 17.0506H25.8532L25.9998 16.6334H27.0934ZM26.8566 15.9344H26.2478L26.5522 15.0776L26.8566 15.9344Z" fill="white"/>
<path d="M30.4078 15.5061V16.1826C30.2612 16.2389 30.1259 16.284 30.0244 16.284C29.6411 16.284 29.3705 15.9909 29.3705 15.585C29.3705 15.1904 29.6411 14.8973 30.0244 14.8973C30.2612 14.8973 30.5543 15.0213 30.746 15.2017L31.2871 14.5365C30.9715 14.266 30.4754 14.0856 30.0244 14.0856C29.0661 14.0856 28.3784 14.7169 28.3784 15.5738C28.3784 16.4419 29.0436 17.0732 29.9568 17.0732C30.3739 17.0732 30.9151 16.9154 31.2308 16.7012V15.4948H30.4078V15.5061Z" fill="white"/>
<path d="M33.7447 16.6334L33.8913 17.0506H34.9172L33.7334 14.1306H32.7413L31.5125 17.0506H32.5046L32.6511 16.6334H33.7447ZM33.508 15.9344H32.8992L33.2036 15.0776L33.508 15.9344Z" fill="white"/>
<path d="M37.7815 14.7283V14.1195H35.1772V14.8636H36.485L35.1208 16.442V17.0508H37.8041V16.3067H36.4174L37.7815 14.7283Z" fill="white"/>
<path d="M39.2352 14.1195H38.2656V17.0395H39.2352V14.1195Z" fill="white"/>
<path d="M42.6518 17.0395V14.1195H41.7837V15.619L40.6338 14.1195H39.822V17.0395H40.7014V15.5513L41.8514 17.0395H42.6518Z" fill="white"/>
<path d="M45.7068 14.8524V14.1195H43.2378V17.0395H45.7519V16.3067H44.2074V15.9459H45.5715V15.2131H44.2074V14.8524H45.7068Z" fill="white"/>
</svg>
