<svg width="95" height="18" viewBox="0 0 95 18" fill="none" xmlns="http://www.w3.org/2000/svg">
<path d="M15.1364 10.5557C14.8601 10.7245 14.5378 10.7552 14.2923 10.6171C13.9853 10.4329 13.8012 10.0185 13.8012 9.4507V7.71647C13.8012 6.88772 13.4789 6.28918 12.9264 6.13571C11.9902 5.85946 11.2842 7.0105 11.0233 7.44022L9.36583 10.0953V6.82633C9.35048 6.07432 9.10492 5.62925 8.64451 5.49113C8.33757 5.39905 7.87715 5.44509 7.43208 6.12037L3.73341 12.0444C3.2423 11.1082 2.9814 10.0646 2.9814 9.00563C2.9814 5.42974 5.85132 2.52912 9.36583 2.52912C12.8803 2.52912 15.7503 5.42974 15.7503 9.00563V9.02098V9.03633C15.7809 9.72695 15.5661 10.2795 15.1364 10.5557ZM17.1622 9.00563V8.99029V8.97494C17.1468 4.63168 13.6477 1.08649 9.36583 1.08649C5.06862 1.08649 1.56946 4.63169 1.56946 9.00563C1.56946 13.3642 5.06862 16.9248 9.36583 16.9248C11.3456 16.9248 13.218 16.1728 14.6606 14.8069C14.9522 14.5306 14.9675 14.0856 14.6913 13.794C14.4304 13.5024 13.9853 13.487 13.6937 13.7479C13.6937 13.7479 13.6937 13.7479 13.6784 13.7633C12.512 14.8683 10.9466 15.4975 9.33513 15.4975C7.44743 15.4975 5.75924 14.6687 4.59285 13.3489L7.92319 8.00807V10.479C7.92319 11.6607 8.38361 12.0444 8.76729 12.1518C9.15097 12.2592 9.73416 12.1825 10.3634 11.1849L12.1897 8.22293C12.2511 8.13084 12.2971 8.03876 12.3585 7.97737V9.4814C12.3585 10.5864 12.8036 11.4765 13.571 11.9062C14.2616 12.3053 15.1364 12.2592 15.8577 11.8142C16.7478 11.231 17.2236 10.2181 17.1622 9.00563ZM28.028 6.30453C28.2122 6.41196 28.381 6.67286 28.381 6.90307C28.381 7.2714 28.074 7.57835 27.7211 7.57835C27.629 7.57835 27.5522 7.54765 27.4755 7.5323C27.0611 7.22536 26.5393 7.02585 25.9868 7.02585C24.6823 7.02585 23.7922 8.0848 23.7922 9.40466C23.7922 10.7245 24.6977 11.7681 25.9868 11.7681C26.6314 11.7681 27.2146 11.5072 27.6443 11.0929C27.7518 11.0161 27.8899 10.9701 28.028 10.9701C28.381 10.9701 28.6572 11.2463 28.6572 11.5993C28.6572 11.8295 28.5191 12.029 28.3503 12.1365C27.7211 12.6736 26.877 13.0266 26.0022 13.0266C24.007 13.0266 22.3802 11.3844 22.3802 9.35862C22.3802 7.33279 24.007 5.69064 26.0022 5.69064C26.7388 5.67529 27.4448 5.9055 28.028 6.30453ZM31.6806 7.83925C33.0465 7.83925 34.1822 8.99029 34.1822 10.4176C34.1822 11.8295 33.0312 13.0419 31.6806 13.0419C30.2533 13.0419 29.0716 11.8449 29.0716 10.4176C29.0716 8.99029 30.2533 7.83925 31.6806 7.83925ZM31.6653 11.7681C32.2638 11.7681 32.7703 11.2003 32.7703 10.4329C32.7703 9.66556 32.2638 9.17445 31.6653 9.17445C31.0207 9.17445 30.4835 9.65021 30.4835 10.4329C30.4835 11.1849 31.0207 11.7681 31.6653 11.7681ZM35.0417 12.2439V8.62195C35.0417 8.22293 35.3486 7.90063 35.7476 7.90063C36.1313 7.90063 36.4536 8.22293 36.4536 8.62195V12.2439C36.4536 12.6429 36.1313 12.9652 35.7476 12.9652C35.364 12.9652 35.0417 12.6276 35.0417 12.2439ZM34.9342 6.53474C34.9342 6.05897 35.3026 5.69064 35.7476 5.69064C36.208 5.69064 36.5764 6.07432 36.5764 6.53474C36.5764 6.99515 36.208 7.36348 35.7476 7.36348C35.2872 7.34814 34.9342 6.9798 34.9342 6.53474ZM39.1547 10.2794V12.2439C39.1547 12.6429 38.8324 12.9652 38.4487 12.9652C38.0651 12.9652 37.7428 12.6429 37.7428 12.2439V8.45313C37.7428 8.14619 37.9883 7.90063 38.2953 7.90063C38.6022 7.90063 38.8324 8.16154 38.8324 8.45313C39.4003 7.91598 39.9067 7.83925 40.3825 7.83925C41.7944 7.83925 42.4237 8.8982 42.4237 10.1106V12.2439C42.4237 12.6429 42.1014 12.9652 41.7177 12.9652C41.334 12.9652 41.0117 12.6429 41.0117 12.2439V10.2794C41.0117 9.66556 40.935 9.14376 40.0448 9.14376C39.4156 9.14376 39.1547 9.66556 39.1547 10.2794ZM46.9971 11.0315C46.8283 11.0315 46.7209 10.9547 46.6288 10.8473L44.9866 9.06702V12.2439C44.9866 12.6429 44.6643 12.9652 44.2807 12.9652C43.897 12.9652 43.5747 12.6429 43.5747 12.2439V5.95155C43.6207 5.84411 43.7282 5.76738 43.8356 5.76738C43.9584 5.76738 44.0658 5.87481 44.1425 5.95155L46.7669 8.8982C46.8436 8.99028 46.9357 9.03633 46.9971 9.03633C47.0432 9.03633 47.1506 8.99028 47.2273 8.8982L49.8517 5.95155C49.9284 5.87481 50.0205 5.76738 50.1586 5.76738C50.2814 5.76738 50.3888 5.84411 50.4195 5.95155V12.2439C50.4195 12.6429 50.1126 12.9652 49.7136 12.9652C49.3299 12.9652 49.0076 12.6429 49.0076 12.2439V9.06702L47.3654 10.8473C47.2427 10.9547 47.1352 11.0315 46.9971 11.0315ZM53.7806 11.7681C54.4098 11.7681 54.947 11.2003 54.947 10.4329C54.947 9.66556 54.3945 9.15911 53.7806 9.15911C53.1667 9.15911 52.6602 9.68091 52.6602 10.4329C52.6602 11.1696 53.1513 11.7681 53.7806 11.7681ZM55.2846 12.4127L55.2539 12.2439C54.9776 12.781 54.1029 13.0266 53.5504 13.0266C52.2305 13.0266 51.2483 11.8295 51.2483 10.4022C51.2483 8.99029 52.2458 7.8239 53.6271 7.8239C53.8573 7.8239 54.6554 7.88529 55.2692 8.60661L55.2999 8.43779C55.2999 8.13084 55.5301 7.88529 55.8371 7.88529C56.144 7.88529 56.3896 8.14619 56.3896 8.43779V12.3974C56.3896 12.7043 56.144 12.9499 55.8371 12.9499C55.5148 12.9652 55.2846 12.7043 55.2846 12.4127ZM60.2724 9.14376H60.119C59.2288 9.1898 59.06 9.69625 59.06 10.2794V12.2439C59.06 12.6429 58.7377 12.9652 58.354 12.9652C57.9703 12.9652 57.6481 12.6429 57.6481 12.2439V8.45313C57.6481 8.14619 57.8936 7.90063 58.2006 7.90063C58.5075 7.90063 58.7377 8.16154 58.7377 8.45313C59.2595 7.96202 59.6892 7.85459 60.119 7.83925H60.2571C60.5947 7.83925 60.9017 8.13085 60.9017 8.49918C60.917 8.83682 60.6101 9.14376 60.2724 9.14376ZM65.7207 11.9062C65.7821 12.0137 65.8281 12.1211 65.8281 12.2439C65.8281 12.6122 65.4905 12.9499 65.1221 12.9499C64.8766 12.9499 64.6617 12.7657 64.4929 12.5508L62.8661 10.6631V12.2285C62.8661 12.6276 62.5438 12.9499 62.1601 12.9499C61.7764 12.9499 61.4542 12.6276 61.4542 12.2285V6.47335C61.4542 6.07432 61.7611 5.75203 62.1601 5.75203C62.5592 5.75203 62.8661 6.07432 62.8661 6.47335V10.0646L64.4929 8.26897C64.6617 8.0848 64.8612 7.88529 65.1068 7.88529C65.4598 7.88529 65.7821 8.20758 65.7821 8.57591C65.7821 8.68334 65.7514 8.80612 65.69 8.8982L64.4008 10.3101L65.7207 11.9062ZM68.4832 9.15911C68.0995 9.15911 67.4703 9.35862 67.4703 9.95716H69.5114C69.4961 9.35862 68.8515 9.15911 68.4832 9.15911ZM70.3248 10.8626H67.4703C67.4703 11.7067 68.2837 11.8449 68.6366 11.8449C68.8975 11.8449 69.2659 11.7988 69.5575 11.6607C69.6496 11.5993 69.7877 11.5533 69.9258 11.5533C70.2327 11.5533 70.4936 11.8142 70.4936 12.1365C70.4936 12.3513 70.3555 12.5355 70.1867 12.6429C69.757 12.9652 69.1891 13.0419 68.652 13.0419C67.2247 13.0419 66.043 12.2746 66.043 10.479C66.043 9.06702 66.7643 7.83925 68.4525 7.83925C69.8184 7.83925 70.8466 8.72938 70.8773 10.3101C70.8773 10.6017 70.6318 10.8626 70.3248 10.8626ZM74.2537 13.0266H73.87C72.7957 13.0266 72.1665 12.5508 72.1665 10.878V9.14376H71.7982C71.4605 9.14376 71.1689 8.83682 71.1689 8.49918C71.1689 8.13085 71.4759 7.83925 71.7982 7.83925H72.1665V6.50404C72.1665 6.10502 72.4734 5.78273 72.8725 5.78273C73.2561 5.78273 73.5784 6.10502 73.5784 6.50404V7.83925H74.1616C74.4993 7.83925 74.7909 8.13085 74.7909 8.49918C74.7909 8.83682 74.4839 9.14376 74.1616 9.14376H73.5784V10.6017C73.5784 11.5686 73.6245 11.7681 74.0542 11.7681H74.2537C74.5913 11.7681 74.8829 12.0444 74.8829 12.3974C74.8829 12.735 74.5913 13.0266 74.2537 13.0266ZM81.0832 6.30453C81.2674 6.41196 81.4362 6.67286 81.4362 6.90307C81.4362 7.2714 81.1292 7.57835 80.7763 7.57835C80.6842 7.57835 80.6074 7.54765 80.5307 7.5323C80.1163 7.22536 79.5945 7.02585 79.042 7.02585C77.7375 7.02585 76.8474 8.0848 76.8474 9.40466C76.8474 10.7245 77.7529 11.7681 79.042 11.7681C79.6866 11.7681 80.2698 11.5072 80.6995 11.0929C80.807 11.0161 80.9451 10.9701 81.0832 10.9701C81.4362 10.9701 81.7124 11.2463 81.7124 11.5993C81.7124 11.8295 81.5743 12.029 81.4055 12.1365C80.7763 12.6736 79.9322 13.0266 79.0574 13.0266C77.0622 13.0266 75.4354 11.3844 75.4354 9.35862C75.4354 7.33279 77.0622 5.69064 79.0574 5.69064C79.794 5.67529 80.5154 5.9055 81.0832 6.30453ZM84.6591 11.7681C85.2883 11.7681 85.8255 11.2003 85.8255 10.4329C85.8255 9.66556 85.273 9.15911 84.6591 9.15911C84.0299 9.15911 83.5387 9.68091 83.5387 10.4329C83.5387 11.1696 84.0452 11.7681 84.6591 11.7681ZM86.1631 12.4127L86.1324 12.2439C85.8562 12.781 84.9814 13.0266 84.4289 13.0266C83.109 13.0266 82.1268 11.8295 82.1268 10.4022C82.1268 8.99029 83.1244 7.8239 84.5056 7.8239C84.7358 7.8239 85.5339 7.88529 86.1478 8.60661L86.1785 8.43779C86.1785 8.13084 86.4087 7.88529 86.7156 7.88529C87.0226 7.88529 87.2681 8.14619 87.2681 8.43779V12.3974C87.2681 12.7043 87.0226 12.9499 86.7156 12.9499C86.3933 12.9652 86.1631 12.7043 86.1631 12.4127ZM91.1203 11.7681C91.7495 11.7681 92.2406 11.1696 92.2406 10.4329C92.2406 9.66556 91.7341 9.15911 91.1203 9.15911C90.491 9.15911 89.9539 9.66556 89.9539 10.4329C89.9539 11.2003 90.491 11.7681 91.1203 11.7681ZM89.9539 12.6122V14.4078C89.9539 14.8069 89.6316 15.1292 89.2479 15.1292C88.8642 15.1292 88.5419 14.8069 88.5419 14.4078V8.45313C88.5419 8.14619 88.7875 7.90063 89.0944 7.90063C89.4014 7.90063 89.6316 8.16154 89.6316 8.51452C90.1534 7.97737 90.798 7.83925 91.2891 7.83925C92.655 7.83925 93.6679 8.99029 93.6679 10.4176C93.6679 11.8295 92.701 13.0419 91.3658 13.0419C90.9514 13.0266 90.3375 12.9038 89.9539 12.6122Z" fill="white"/>
</svg>
