<svg width="93" height="24" viewBox="0 0 93 24" fill="none" xmlns="http://www.w3.org/2000/svg">
<path d="M14.9203 17.4334L10.646 19.2935V19.1154C9.79515 19.333 8.92447 19.4518 8.034 19.4914C4.017 19.4518 0.831103 17.3542 0.791527 14.8609V13.9309C2.09755 15.8503 4.80853 17.1366 8.034 17.0772C9.10256 17.1168 10.1513 16.9783 11.1803 16.7012L11.5563 15.7712C10.4086 16.1274 9.22129 16.3252 8.034 16.3252C4.017 16.345 0.831103 14.2475 0.791527 11.6948V10.9429C2.09755 12.7238 4.78874 13.9902 8.034 13.9309C9.43896 14.01 10.8439 13.7528 12.1104 13.1789L12.2885 12.2489C10.9626 12.9019 9.49832 13.2383 8.01421 13.1789C3.99721 13.2383 0.811315 11.1407 0.771739 8.54849V7.79654C2.07776 9.61705 4.78874 10.8835 8.01421 10.9429C9.75557 10.8835 11.4771 10.4482 13.0404 9.65663L13.2185 8.54849C11.9323 9.49832 10.0326 10.1315 8.034 10.2107C3.99721 10.1118 0.811315 8.01421 0.771739 5.38238C0.811315 2.88907 3.99721 0.771736 8.01421 0.751948C10.4086 0.791525 12.6249 1.64242 13.9507 2.98801L14.0892 3.18589H15.0192L14.8807 2.96823C13.5549 1.18729 10.9231 0 7.99442 0C3.56187 0 0 2.45373 0 5.38238V15.039C0.158305 17.9083 3.62124 20.2433 7.99442 20.2433C10.9231 20.2235 13.5153 19.0758 14.9203 17.4334Z" fill="white"/>
<path d="M13.1788 23.9831L14.6827 17.6113L10.3689 19.4912L13.0007 8.4296H7.93494L9.24096 2.98785H25.3683L24.0623 8.4296H18.8184L17.6905 11.4374L23.5082 9.00346L13.1788 23.9831ZM15.8106 16.2855L15.0587 20.0255L21.2524 10.6459L16.1866 12.9017L18.4425 7.65786H23.5082L24.4383 3.72002H9.81481L8.88477 7.65786H13.9505L11.5166 18.1456L15.8106 16.2855Z" fill="white"/>
<path d="M35.3813 6.62886C35.3813 6.9059 35.3021 7.16314 35.2032 7.4006C35.0845 7.63806 34.9262 7.85573 34.7283 8.03382C34.2731 8.39001 33.7191 8.58789 33.1452 8.54832C32.8286 8.56811 32.512 8.50874 32.2152 8.39001C31.9183 8.27128 31.6611 8.0734 31.4434 7.83594C31.0279 7.36103 30.83 6.68823 30.83 5.83734V5.50094C30.8102 5.00623 30.9092 4.53132 31.107 4.07619C31.2851 3.68042 31.5622 3.36381 31.9183 3.12635C32.3537 2.8889 32.8484 2.77017 33.3431 2.80975C33.8378 2.84932 34.3127 3.02741 34.7085 3.32424C35.124 3.70021 35.3615 4.23449 35.4011 4.78856H34.2534C34.2534 4.49174 34.1544 4.21471 33.9565 3.99704C33.7389 3.81894 33.442 3.73979 33.165 3.75958C33.0067 3.73979 32.8286 3.77937 32.6703 3.85852C32.512 3.93767 32.3933 4.03661 32.2943 4.17513C32.0964 4.45216 31.9975 4.8875 31.9975 5.46136V5.87691C31.9975 6.49035 32.0964 6.92569 32.2745 7.20272C32.3735 7.34124 32.4922 7.45997 32.6505 7.51933C32.8088 7.59849 32.9671 7.61827 33.1452 7.61827C33.442 7.63806 33.7191 7.55891 33.9367 7.38081C34.1346 7.18293 34.2336 6.9059 34.2336 6.62886H35.3813Z" fill="white"/>
<path d="M40.7439 5.81771C40.7637 6.31241 40.6647 6.80712 40.447 7.26224C40.269 7.65801 39.9721 7.99441 39.6159 8.23186C39.24 8.44953 38.8046 8.56826 38.3693 8.56826C37.9339 8.56826 37.4986 8.44953 37.1226 8.23186C36.7467 7.99441 36.4498 7.67779 36.2717 7.28203C36.0739 6.8269 35.9551 6.35199 35.9749 5.85728V5.58025C35.9551 5.08555 36.0739 4.59084 36.2717 4.11592C36.4498 3.72016 36.7467 3.38376 37.1226 3.1463C37.4986 2.92863 37.9339 2.80991 38.3693 2.80991C38.8046 2.80991 39.24 2.92863 39.6159 3.1463C39.9919 3.38376 40.269 3.72016 40.4668 4.11592C40.6647 4.57105 40.7834 5.06576 40.7637 5.56046V5.81771H40.7439ZM39.5764 5.56046C39.5764 4.96682 39.4774 4.53148 39.2598 4.21486C39.1608 4.07635 39.0223 3.95762 38.864 3.87847C38.7057 3.79931 38.5276 3.75974 38.3693 3.75974C38.1912 3.75974 38.0131 3.79931 37.8746 3.87847C37.7163 3.95762 37.5778 4.07635 37.4788 4.21486C37.2612 4.51169 37.1622 4.96682 37.1622 5.54067V5.81771C37.1424 6.27284 37.2414 6.74775 37.4788 7.14351C37.5778 7.28203 37.7163 7.40076 37.8746 7.47991C38.0329 7.55907 38.211 7.59864 38.3891 7.59864C38.5672 7.59864 38.7453 7.55907 38.9036 7.47991C39.0619 7.40076 39.2004 7.28203 39.2993 7.14351C39.4972 6.84669 39.6159 6.39156 39.6159 5.81771V5.56046H39.5764Z" fill="white"/>
<path d="M42.8016 8.46919H41.6539V2.86914H42.8016V8.46919Z" fill="white"/>
<path d="M48.4219 8.46919H47.2742L45.0381 4.78859V8.46919H43.8904V2.86914H45.0381L47.2939 6.54974V2.86914H48.4417V8.46919H48.4219Z" fill="white"/>
<path d="M53.5272 3.81875H51.8057V8.48876H50.6777V3.81875H48.9957V2.8887H53.547V3.81875H53.5272Z" fill="white"/>
<path d="M57.5638 6.05481H55.3476V7.55871H57.9398V8.48876H54.1801V2.8887H57.92V3.81875H55.3278V5.14456H57.544V6.05481H57.5638Z" fill="white"/>
<path d="M59.78 7.53915H62.2338V8.46919H58.6323V2.86914H59.78V7.53915Z" fill="white"/>
<path d="M66.2506 6.05481H64.0343V7.55871H66.6266V8.48876H62.8668V2.8887H66.6068V3.81875H64.0145V5.14456H66.2308V6.05481H66.2506Z" fill="white"/>
<path d="M71.7519 7.77673C71.5144 8.05377 71.2176 8.25165 70.8812 8.35059C70.4854 8.48911 70.0501 8.56826 69.6148 8.54848C69.1596 8.56826 68.7243 8.44953 68.3483 8.23186C67.9723 8.01419 67.6755 7.69758 67.4974 7.30182C67.2798 6.86648 67.1808 6.37178 67.2006 5.87707V5.50109C67.1808 5.00639 67.2798 4.51169 67.4776 4.05656C67.6557 3.6608 67.9328 3.34418 68.289 3.12651C68.6649 2.90884 69.1003 2.79012 69.5356 2.8099C70.2084 2.8099 70.7229 2.96821 71.0989 3.28482C71.4946 3.64101 71.7321 4.13571 71.7717 4.66999H70.6437C70.624 4.39296 70.5052 4.1555 70.3074 3.95762C70.1095 3.79931 69.8522 3.72016 69.5752 3.73995C69.3971 3.73995 69.219 3.75974 69.0607 3.83889C68.9024 3.91804 68.7639 4.03677 68.6649 4.17529C68.467 4.47211 68.3483 4.90745 68.3483 5.48131V5.8375C68.3483 6.43114 68.467 6.86648 68.6847 7.1633C68.8034 7.32161 68.942 7.44034 69.1201 7.51949C69.2982 7.59864 69.4762 7.63822 69.6741 7.61843C70.1095 7.61843 70.4063 7.51949 70.6042 7.3414V6.37178H69.5554V5.52088H71.7519V7.77673Z" fill="white"/>
<path d="M74.7402 6.43079H73.83V8.48876H72.6823V2.8887H74.76C75.413 2.8887 75.9275 3.02722 76.2837 3.32404C76.4618 3.48235 76.6003 3.66044 76.6992 3.87811C76.7982 4.09578 76.8378 4.33324 76.818 4.5707C76.8378 4.9071 76.7388 5.2435 76.5607 5.52053C76.3826 5.79757 76.1056 5.99545 75.8088 6.13397L77.0159 8.42939V8.48876H75.7692L74.7402 6.43079ZM73.83 5.48095H74.76C74.9975 5.50074 75.2547 5.42159 75.4328 5.26328C75.512 5.18413 75.5713 5.08519 75.6109 4.98625C75.6505 4.88731 75.6703 4.76858 75.6703 4.64985C75.6703 4.53112 75.6505 4.43218 75.6307 4.31345C75.5911 4.21451 75.5317 4.11557 75.4526 4.01663C75.3537 3.93748 75.2547 3.87811 75.136 3.83854C75.0173 3.79896 74.8985 3.77917 74.76 3.79896H73.83V5.48095Z" fill="white"/>
<path d="M80.8544 7.32148H78.836L78.46 8.46919H77.2332L79.3109 2.86914H80.3795L82.477 8.46919H81.2502L80.8544 7.32148ZM79.1526 6.39143H80.5576L79.8452 4.29389L79.1526 6.39143Z" fill="white"/>
<path d="M84.1591 6.50994V8.48876H83.0114V2.8887H85.1881C85.564 2.8887 85.94 2.96785 86.2962 3.12616C86.593 3.26468 86.8503 3.50214 87.0284 3.77917C87.2064 4.07599 87.2856 4.41239 87.2856 4.74879C87.3054 4.98625 87.246 5.2435 87.1471 5.46117C87.0481 5.67884 86.9096 5.87672 86.7117 6.03502C86.3358 6.35164 85.8213 6.50994 85.1485 6.50994H84.1591ZM84.1591 5.56011H85.1881C85.4453 5.57989 85.6828 5.50074 85.8806 5.34244C85.9598 5.26329 86.0192 5.16434 86.0785 5.0654C86.1181 4.96646 86.1379 4.84773 86.1379 4.729C86.1379 4.61027 86.1181 4.49154 86.0785 4.37282C86.0389 4.25409 85.9796 4.15515 85.9004 4.05621C85.8213 3.97705 85.7025 3.8979 85.5838 3.85832C85.4651 3.81875 85.3464 3.79896 85.2276 3.79896H84.1789V5.56011H84.1591Z" fill="white"/>
<path d="M92.6282 8.46919H91.4805V6.07482H89.2246V8.46919H88.0769V2.86914H89.2246V5.14478H91.4805V2.86914H92.6282V8.46919Z" fill="white"/>
<path d="M34.4314 14.4649H33.0067V18.3434H32.037V14.4649H30.6321V13.6932H34.4314V14.4649Z" fill="white"/>
<path d="M35.8165 15.2564C35.9352 15.1179 36.0738 14.9991 36.2321 14.92C36.3904 14.8408 36.5685 14.8013 36.7466 14.8013C37.4985 14.8013 37.8745 15.2366 37.8943 16.1073V18.3236H36.9642V16.1271C36.984 15.9688 36.9247 15.8105 36.8455 15.6917C36.7861 15.6324 36.7268 15.5928 36.6476 15.573C36.5685 15.5532 36.4893 15.5334 36.4102 15.5532C36.2914 15.5532 36.1727 15.573 36.0738 15.6324C35.9748 15.6917 35.8759 15.7709 35.8165 15.8698V18.3236H34.8865V13.3963H35.8165V15.2564Z" fill="white"/>
<path d="M40.1699 18.4226C39.9325 18.4226 39.7148 18.4029 39.4971 18.3237C39.2795 18.2445 39.0816 18.1258 38.9233 17.9675C38.765 17.8092 38.6265 17.6113 38.5473 17.3937C38.4682 17.176 38.4286 16.9583 38.4286 16.7209V16.6219C38.4286 16.3053 38.488 15.9887 38.6265 15.6919C38.7452 15.4346 38.9431 15.217 39.2003 15.0586C39.4576 14.9003 39.7544 14.8212 40.0512 14.841C40.2689 14.8212 40.4668 14.8608 40.6647 14.9399C40.8625 15.0191 41.0406 15.1378 41.1791 15.2961C41.4562 15.5929 41.5947 16.0283 41.5947 16.5626V16.9385H39.3982C39.418 17.1562 39.5169 17.3343 39.6752 17.4926C39.8335 17.6311 40.0314 17.7103 40.2491 17.6905C40.4074 17.6905 40.5657 17.6707 40.724 17.5915C40.8625 17.5322 41.0011 17.4134 41.1 17.2947L41.5551 17.8092C41.4166 18.0071 41.2187 18.1654 41.0011 18.2643C40.724 18.3633 40.447 18.4226 40.1699 18.4226ZM40.071 15.5731C39.9919 15.5731 39.9127 15.5929 39.8336 15.6127C39.7544 15.6523 39.695 15.6919 39.6357 15.7512C39.5169 15.9095 39.4378 16.0876 39.418 16.2855H40.7042V16.2064C40.7042 16.0283 40.6449 15.87 40.5459 15.7314C40.4866 15.6721 40.4074 15.6325 40.3283 15.5929C40.2293 15.5731 40.1502 15.5731 40.071 15.5731Z" fill="white"/>
<path d="M44.0092 18.3434V15.5533H43.4948V14.8805H44.0092V14.5837C43.9895 14.4254 44.029 14.2473 44.0884 14.089C44.1478 13.9307 44.2269 13.7921 44.3456 13.6734C44.6029 13.4557 44.9393 13.337 45.2757 13.3568C45.434 13.3568 45.5923 13.3766 45.7506 13.4162V14.1285C45.6517 14.1088 45.5725 14.089 45.4736 14.1088C45.1174 14.1088 44.9591 14.2671 44.9591 14.6035V14.8805H45.6517V15.5533H44.9393V18.3434H44.0092Z" fill="white"/>
<path d="M48.1844 18.0073C48.0656 18.1458 47.9271 18.2645 47.7688 18.3239C47.6105 18.403 47.4324 18.4228 47.2543 18.4228C47.096 18.4426 46.9377 18.403 46.7992 18.3634C46.6607 18.3041 46.5222 18.2249 46.4034 18.1062C46.1858 17.849 46.0868 17.5126 46.1066 17.1762V14.9005H47.0366V17.1366C47.0366 17.4928 47.195 17.6709 47.5314 17.6709C47.6501 17.6906 47.7886 17.6511 47.9073 17.6115C48.0261 17.5521 48.125 17.473 48.1844 17.3542V14.9005H49.1144V18.3634H48.2437L48.1844 18.0073Z" fill="white"/>
<path d="M50.8951 14.0296V14.8805H51.4887V15.5533H50.8951V17.2748C50.8951 17.3738 50.9149 17.4727 50.9742 17.5519C51.0138 17.5914 51.0534 17.6112 51.1127 17.631C51.1523 17.6508 51.2117 17.6508 51.271 17.6508C51.37 17.6508 51.4491 17.6508 51.5481 17.631V18.3236C51.37 18.383 51.1721 18.4028 50.994 18.4028C50.341 18.4028 50.0046 18.0664 50.0046 17.4134V15.5533H49.4901V14.8805H50.0046V14.0296H50.8951Z" fill="white"/>
<path d="M54.0812 18.0073C53.9625 18.1458 53.824 18.2645 53.6657 18.3239C53.5074 18.403 53.3293 18.4228 53.1512 18.4228C52.9929 18.4426 52.8346 18.403 52.696 18.3634C52.5575 18.3041 52.419 18.2249 52.3003 18.1062C52.0826 17.849 51.9837 17.5126 52.0035 17.1762V14.9005H52.9335V17.1366C52.9335 17.4928 53.0918 17.6709 53.4282 17.6709C53.5469 17.6906 53.6854 17.6511 53.8042 17.6115C53.9229 17.5521 54.0218 17.473 54.0812 17.3542V14.9005H55.0112V18.3634H54.1406L54.0812 18.0073Z" fill="white"/>
<path d="M57.6231 15.7513C57.5044 15.7315 57.4054 15.7315 57.2867 15.7315C56.9305 15.7315 56.7128 15.8502 56.5941 16.0877V18.3633H55.6641V14.9004H56.5347L56.5545 15.316C56.6337 15.1775 56.7326 15.0587 56.8711 14.9598C57.0097 14.8806 57.168 14.8213 57.3263 14.8411C57.4252 14.8411 57.5241 14.8608 57.6231 14.8806V15.7513Z" fill="white"/>
<path d="M59.6018 18.4226C59.3644 18.4226 59.1467 18.4029 58.929 18.3237C58.7114 18.2445 58.5135 18.1258 58.3552 17.9675C58.1969 17.8092 58.0584 17.6113 57.9792 17.3937C57.9001 17.176 57.8605 16.9583 57.8605 16.7209V16.6219C57.8605 16.3053 57.9198 15.9887 58.0584 15.6919C58.1771 15.4346 58.375 15.217 58.6322 15.0586C58.8895 14.9003 59.1863 14.8212 59.4831 14.841C59.7008 14.8212 59.8987 14.8608 60.0965 14.9399C60.2944 15.0191 60.4725 15.1378 60.611 15.2961C60.8881 15.5929 61.0266 16.0283 61.0266 16.5626V16.9385H58.8103C58.8301 17.1562 58.929 17.3343 59.0873 17.4926C59.2456 17.6311 59.4435 17.7103 59.6612 17.6905C59.8195 17.6905 59.9778 17.6707 60.1361 17.5915C60.2746 17.5322 60.4132 17.4134 60.5121 17.2947L60.9672 17.8092C60.8287 18.0071 60.6308 18.1654 60.4132 18.2643C60.1361 18.3633 59.8789 18.4226 59.6018 18.4226ZM59.4831 15.5731C59.404 15.5731 59.3248 15.5929 59.2456 15.6127C59.1665 15.6523 59.1071 15.6919 59.0478 15.7512C58.929 15.9095 58.8499 16.0876 58.8301 16.2855H60.1163V16.2064C60.1163 16.0283 60.057 15.87 59.958 15.7314C59.8987 15.6721 59.8195 15.6325 59.7404 15.5929C59.6612 15.5731 59.582 15.5731 59.4831 15.5731Z" fill="white"/>
<path d="M63.045 16.5824C63.045 16.2658 63.1044 15.9492 63.2429 15.6722C63.3617 15.4149 63.5595 15.1973 63.8168 15.039C64.074 14.8807 64.3708 14.8213 64.6875 14.8213C64.9051 14.8213 65.103 14.8411 65.3009 14.9202C65.4988 14.9994 65.6769 15.0983 65.8352 15.2566C66.1518 15.5732 66.3101 15.9888 66.3299 16.4241V16.6616C66.3497 17.1365 66.1914 17.5916 65.8945 17.9478C65.5779 18.2644 65.1426 18.4227 64.7072 18.4227C64.2521 18.4227 63.8366 18.2446 63.52 17.9478C63.2033 17.5916 63.045 17.1167 63.0648 16.6418V16.5824H63.045ZM63.9553 16.6616C63.9355 16.9188 63.9949 17.1959 64.1334 17.4135C64.1928 17.4927 64.2719 17.5521 64.3709 17.6114C64.4698 17.651 64.5687 17.6708 64.6677 17.6906C64.7666 17.6906 64.8656 17.6708 64.9645 17.6312C65.0634 17.5916 65.1426 17.5125 65.202 17.4333C65.3405 17.1761 65.4196 16.899 65.3998 16.6022C65.4196 16.345 65.3405 16.0679 65.202 15.8503C65.1426 15.7711 65.0634 15.692 64.9645 15.6524C64.8656 15.6128 64.7666 15.593 64.6677 15.593C64.5687 15.593 64.4698 15.6128 64.3709 15.6524C64.2719 15.692 64.1928 15.7711 64.1334 15.8503C64.0147 16.0877 63.9355 16.3648 63.9553 16.6616Z" fill="white"/>
<path d="M67.1413 18.3434V15.5533H66.6268V14.8805H67.1413V14.5837C67.1215 14.4254 67.1611 14.2473 67.2205 14.089C67.2798 13.9307 67.359 13.7921 67.4777 13.6734C67.735 13.4557 68.0714 13.337 68.4078 13.3568C68.5661 13.3568 68.7244 13.3766 68.8827 13.4162V14.1285C68.7837 14.1088 68.7046 14.089 68.6056 14.1088C68.2495 14.1088 68.0912 14.2671 68.0912 14.6035V14.8805H68.7837V15.5533H68.0912V18.3434H67.1413Z" fill="white"/>
<path d="M71.7518 14.8806L71.7716 15.2763C71.8903 15.1378 72.0486 15.0191 72.2069 14.9399C72.385 14.8608 72.5631 14.8212 72.761 14.841C72.9589 14.8212 73.137 14.8608 73.2953 14.9597C73.4536 15.0586 73.5921 15.1972 73.6713 15.3753C73.79 15.1972 73.9483 15.0586 74.1264 14.9795C74.3045 14.8806 74.5024 14.841 74.72 14.8608C74.8783 14.841 75.0366 14.8806 75.1752 14.9201C75.3137 14.9795 75.4522 15.0586 75.5511 15.1774C75.749 15.4742 75.848 15.8106 75.8282 16.1668V18.3831H74.8981V16.1668C74.9179 16.0085 74.8783 15.87 74.7794 15.7314C74.72 15.6721 74.6607 15.6325 74.5815 15.6127C74.5024 15.5929 74.443 15.5731 74.3639 15.5929C74.2451 15.5929 74.1066 15.6127 74.0077 15.6919C73.9087 15.771 73.8296 15.87 73.79 15.9887V18.3633H72.8599V16.147C72.8797 15.9887 72.8402 15.8304 72.7412 15.7117C72.6819 15.6523 72.6225 15.6325 72.5631 15.5929C72.484 15.5731 72.4246 15.5534 72.3455 15.5731C72.2267 15.5731 72.108 15.5929 72.0091 15.6523C71.9101 15.7117 71.831 15.7908 71.7716 15.9095V18.3633H70.8416V14.9003H71.7518V14.8806Z" fill="white"/>
<path d="M76.402 16.5824C76.402 16.2658 76.4613 15.9492 76.5999 15.6722C76.7186 15.4149 76.9165 15.1973 77.1737 15.039C77.431 14.8807 77.7278 14.8213 78.0444 14.8213C78.2621 14.8213 78.4599 14.8411 78.6578 14.9202C78.8557 14.9994 79.0338 15.0983 79.1921 15.2566C79.5087 15.5732 79.667 15.9888 79.6868 16.4241V16.6616C79.7066 17.1365 79.5483 17.5916 79.2515 17.9478C78.9349 18.2644 78.4995 18.4227 78.0642 18.4227C77.6288 18.4227 77.1935 18.2446 76.8769 17.9478C76.5603 17.5916 76.402 17.1167 76.4218 16.6418V16.5824H76.402ZM77.332 16.6616C77.3122 16.9188 77.3716 17.1959 77.5101 17.4135C77.5695 17.4927 77.6486 17.5521 77.7476 17.6114C77.8465 17.651 77.9455 17.6708 78.0444 17.6906C78.1433 17.7104 78.2423 17.6708 78.3412 17.6312C78.4402 17.5916 78.5193 17.5125 78.5787 17.4333C78.7172 17.1761 78.7963 16.899 78.7766 16.6022C78.7963 16.345 78.7172 16.0679 78.5787 15.8503C78.5193 15.7711 78.4402 15.692 78.3412 15.6524C78.2423 15.6128 78.1433 15.593 78.0444 15.593C77.9455 15.593 77.8465 15.6128 77.7476 15.6524C77.6486 15.692 77.5695 15.7711 77.5101 15.8503C77.3716 16.0877 77.3122 16.3648 77.332 16.6616Z" fill="white"/>
<path d="M81.1116 14.8807L81.1314 15.2764C81.2501 15.1181 81.4085 14.9994 81.5668 14.9202C81.7449 14.8411 81.9229 14.8015 82.1208 14.8015C82.2791 14.7817 82.4177 14.8213 82.576 14.8609C82.7145 14.9202 82.853 14.9994 82.9519 15.1181C83.1498 15.3951 83.2488 15.7315 83.229 16.0877V18.3238H82.2989V16.1075C82.3187 15.9492 82.2594 15.7909 82.1802 15.6722C82.1208 15.6326 82.0615 15.593 81.9823 15.5534C81.9032 15.5337 81.824 15.5139 81.7646 15.5337C81.6459 15.5337 81.5272 15.5534 81.4282 15.6128C81.3293 15.6722 81.2304 15.7513 81.1908 15.8701V18.3238H80.2607V14.8609H81.1116V14.8807Z" fill="white"/>
<path d="M85.5443 18.4226C85.3069 18.4226 85.0892 18.4029 84.8715 18.3237C84.6539 18.2445 84.456 18.1258 84.2977 17.9675C84.1394 17.8092 84.0009 17.6113 83.9217 17.3937C83.8426 17.176 83.803 16.9583 83.803 16.7209V16.6219C83.803 16.3053 83.8623 15.9887 84.0009 15.6919C84.1196 15.4346 84.3175 15.217 84.5747 15.0586C84.832 14.9003 85.1288 14.8212 85.4256 14.841C85.6433 14.8212 85.8412 14.8608 86.039 14.9399C86.2369 15.0191 86.415 15.1378 86.5535 15.2961C86.8306 15.5929 86.9691 16.0283 86.9691 16.5626V16.9385H84.7528C84.7726 17.1562 84.8715 17.3343 85.0298 17.4926C85.1882 17.6311 85.386 17.7103 85.6037 17.6905C85.762 17.6905 85.9203 17.6707 86.0786 17.5915C86.2171 17.5322 86.3557 17.4134 86.4546 17.2947L86.9097 17.8092C86.7712 18.0071 86.5733 18.1654 86.3557 18.2643C86.0786 18.3633 85.8016 18.4226 85.5443 18.4226ZM85.4256 15.5731C85.3465 15.5731 85.2673 15.5929 85.1882 15.6127C85.109 15.6523 85.0496 15.6919 84.9903 15.7512C84.8715 15.9095 84.7924 16.0876 84.7726 16.2855H86.0588V16.2064C86.0588 16.0283 85.9995 15.87 85.9005 15.7314C85.8412 15.6721 85.762 15.6325 85.6829 15.5929C85.6037 15.5731 85.5048 15.5731 85.4256 15.5731Z" fill="white"/>
<path d="M88.7299 17.0375L89.3632 14.8806H90.3526L88.9674 18.8778L88.8882 19.0559C88.8091 19.2537 88.6706 19.4318 88.4925 19.5506C88.3144 19.6693 88.0967 19.7287 87.879 19.7287C87.7405 19.7287 87.602 19.7089 87.4635 19.6693V18.9767H87.602C87.7405 18.9767 87.879 18.9569 87.9978 18.8976C88.0967 18.8382 88.1561 18.7392 88.1956 18.6403L88.3144 18.3633L87.1073 14.8806H88.0967L88.7299 17.0375Z" fill="white"/>
</svg>
