<svg width="90" height="22" viewBox="0 0 90 22" fill="none" xmlns="http://www.w3.org/2000/svg">
<path d="M15.9356 10.9915L10.7539 16.1732H21.1174L15.9356 10.9915Z" fill="white"/>
<path d="M5.5726 10.9916L0.390869 5.80988V16.1733L5.5726 10.9916Z" fill="white"/>
<path d="M15.9356 10.9916L21.1174 5.80988H10.7539L15.9356 10.9916Z" fill="white"/>
<path d="M10.7536 5.81L15.9354 0.628265H5.5719L10.7536 5.81Z" fill="white"/>
<path d="M15.9356 21.355L21.1174 16.1733H10.7539L15.9356 21.355Z" fill="white"/>
<path d="M5.5726 21.355L10.7543 16.1733H0.390869L5.5726 21.355Z" fill="white"/>
<path d="M15.9356 0.628265L10.7539 5.81H21.1174L15.9356 0.628265Z" fill="white"/>
<path d="M0.390869 5.80985H10.7543L5.5726 0.628113L0.390869 5.80985Z" fill="white"/>
<path d="M10.7536 16.1733L5.5719 21.355H15.9354L10.7536 16.1733Z" fill="white"/>
<path d="M5.5726 10.9915L0.390869 16.1732H10.7543L5.5726 10.9915Z" fill="white"/>
<path d="M10.7543 5.80988H0.390869L5.5726 10.9916L10.7543 5.80988Z" fill="white"/>
<path fill-rule="evenodd" clip-rule="evenodd" d="M27.1349 12.8969C27.4091 12.8969 27.6147 12.8147 27.7518 12.6639C27.8889 12.5131 27.9574 12.2938 27.9574 11.9922H29.8491L29.8628 12.0333C29.904 12.705 29.6161 13.363 29.1089 13.8017C28.5606 14.2678 27.8614 14.5145 27.1349 14.4871C26.1205 14.4871 25.3528 14.1718 24.8045 13.5549C24.2424 12.8695 23.9409 12.0059 23.982 11.1286V10.9915C23.982 10.0045 24.2562 9.1957 24.8045 8.56512C25.3391 7.93454 26.1205 7.63296 27.1212 7.63296C27.9574 7.63296 28.6291 7.866 29.1363 8.33208C29.6572 8.82558 29.9177 9.53841 29.8766 10.2512L29.8628 10.2924H27.9711C27.9848 10.0182 27.9026 9.74403 27.7655 9.5247C27.6284 9.33278 27.4228 9.23683 27.1349 9.23683C26.7374 9.23683 26.4632 9.40133 26.3124 9.71662C26.1342 10.1279 26.0519 10.5665 26.0794 11.0052V11.1423C26.0794 11.6906 26.1616 12.1293 26.3124 12.4446C26.4495 12.7324 26.7374 12.8969 27.1349 12.8969ZM34.4688 9.56583H33.7149C33.4818 9.56583 33.2899 9.60695 33.1391 9.67549C32.9883 9.75774 32.8787 9.86741 32.8101 10.0182V14.3637H30.7402V7.74262H32.6868L32.7553 8.71591C32.865 8.40062 33.0569 8.12645 33.3173 7.90712C33.5367 7.71521 33.8245 7.61925 34.1124 7.61925C34.3043 7.61925 34.4963 7.64666 34.6882 7.68779L34.4688 9.56583ZM38.4031 11.4439V11.4987H38.4442L39.5409 7.74262H41.7479L39.1022 15.337C38.8966 15.8305 38.6362 16.2281 38.3072 16.5433C37.9782 16.8586 37.471 17.0231 36.7581 17.0231C36.5799 17.0231 36.4291 17.0094 36.3195 16.982C36.2098 16.9683 36.0316 16.9272 35.7848 16.8586L36.0316 15.3918L36.155 15.4193L36.2646 15.433C36.5936 15.433 36.8267 15.3781 36.9774 15.2822C37.1282 15.1862 37.2379 15.0354 37.3202 14.8435L37.4847 14.4186L35.1817 7.72892H37.3887L38.4031 11.4439ZM46.3676 11.06C46.3676 10.5117 46.2854 10.0456 46.1209 9.71662C45.9564 9.37391 45.6959 9.20941 45.3395 9.20941C45.1065 9.20941 44.9008 9.25053 44.7501 9.33278C44.5856 9.41503 44.4622 9.53841 44.3662 9.70291V12.472C44.4622 12.6091 44.5993 12.7187 44.7501 12.7873C44.942 12.8558 45.1476 12.8969 45.3532 12.8832C45.7233 12.8832 45.9701 12.7324 46.1346 12.4309C46.3128 12.0333 46.395 11.6084 46.3676 11.1697V11.06ZM48.4376 11.1834C48.4376 12.1841 48.2045 12.9792 47.7659 13.5824C47.3272 14.1855 46.6144 14.5145 45.8741 14.4871C45.2847 14.5008 44.7363 14.2404 44.3799 13.7743V16.8998H42.31V7.74262H44.2428L44.3251 8.46916C44.6541 7.93454 45.2436 7.60554 45.8741 7.61925C46.6966 7.61925 47.3272 7.93454 47.7796 8.56512C48.2594 9.30537 48.4924 10.1827 48.4513 11.06V11.1834H48.4376ZM51.7961 6.09763V7.74262H52.9202V9.16829H51.7961V12.2115C51.7961 12.4446 51.8509 12.6091 51.9332 12.7187C52.0292 12.8284 52.1799 12.8832 52.317 12.8832C52.5227 12.8832 52.7283 12.8695 52.9202 12.8284L53.0573 14.3637C52.646 14.4597 52.2211 14.5145 51.7824 14.5145C51.097 14.5145 50.5898 14.3226 50.2334 13.9662C49.877 13.6098 49.6987 13.034 49.6987 12.2527V9.1957H48.7666V7.77004H49.6987V6.12504H51.7961V6.09763ZM55.5111 11.1149C55.5111 11.6632 55.5933 12.1019 55.7715 12.4171C55.9497 12.7324 56.2376 12.8832 56.6626 12.8832C57.0738 12.8832 57.3617 12.7324 57.5262 12.4034C57.7044 12.0881 57.7866 11.6495 57.7866 11.1012V10.9641C57.8003 10.5117 57.7181 10.073 57.5262 9.67549C57.348 9.34649 57.0601 9.1957 56.6351 9.1957C56.2239 9.1957 55.936 9.3602 55.7715 9.6892C55.5933 10.0182 55.5111 10.4432 55.5111 10.9778V11.1149ZM53.4411 10.9915C53.4 10.1004 53.7016 9.23682 54.291 8.56512C54.8531 7.93454 55.6481 7.61925 56.6488 7.61925C57.6633 7.61925 58.4446 7.93454 59.0067 8.56512C59.5824 9.23682 59.8977 10.1004 59.8566 10.9915V11.1286C59.8566 12.1293 59.5687 12.9381 59.0067 13.5549C58.4446 14.1855 57.6633 14.4871 56.6488 14.4871C55.6344 14.4871 54.8394 14.1718 54.2773 13.5549C53.7016 12.8832 53.4 12.0059 53.4411 11.1286V10.9915ZM62.6805 7.74262L62.7627 8.67479C62.9821 8.34579 63.2425 8.08533 63.5715 7.90712C63.9005 7.71521 64.2569 7.61925 64.6271 7.63296C65.2851 7.63296 65.7923 7.83858 66.1487 8.26354C66.5188 8.6885 66.697 9.3602 66.697 10.2787V14.3774H64.6271V10.2649C64.6271 9.88112 64.5448 9.62066 64.394 9.45616C64.2432 9.30537 64.0102 9.22312 63.6949 9.22312C63.3522 9.20941 63.0232 9.3602 62.8039 9.62066V14.3774H60.7476V7.75633H62.6805V7.74262ZM70.7136 9.20941C70.412 9.20941 70.1926 9.30537 70.0418 9.5247C69.8911 9.73032 69.8088 10.0182 69.7677 10.3746L69.7814 10.402H71.5635V10.2512C71.5635 9.90853 71.4949 9.66178 71.3578 9.48358C71.2208 9.29166 71.0151 9.20941 70.7136 9.20941ZM70.8643 14.4871C69.8773 14.4871 69.1097 14.1855 68.5202 13.5686C67.9308 12.9518 67.6155 12.1156 67.6429 11.2657V11.0326C67.6429 10.0182 67.9034 9.1957 68.438 8.56512C68.9726 7.93454 69.7266 7.60554 70.7136 7.61925C71.6183 7.61925 72.3174 7.89341 72.8246 8.42804C73.3593 9.0312 73.6334 9.81258 73.5923 10.6077V11.6906H69.7951L69.7814 11.7317C69.8362 12.0744 69.9596 12.3486 70.2063 12.5679C70.4394 12.7873 70.741 12.8969 71.1385 12.8969C71.7691 12.9106 72.3997 12.7736 72.9754 12.4857L73.4689 13.7469C73.1262 13.9799 72.7424 14.1581 72.3448 14.2815C71.8788 14.4186 71.3853 14.4871 70.8643 14.4871ZM80.1723 11.5809H80.2134L80.9262 7.74262H82.8317L81.2689 14.3637H79.5143L78.4313 10.8544H78.3902L77.3072 14.3637H75.5526L73.9898 7.74262H75.8953L76.6218 11.6084H76.6629L77.7459 7.74262H79.0482L80.1723 11.5809ZM87.0264 12.4994C87.0264 12.3349 86.9305 12.1978 86.7523 12.0607C86.437 11.8825 86.0943 11.7729 85.7378 11.718C85.1073 11.6221 84.5041 11.389 83.9832 11.0052C83.5856 10.6899 83.38 10.2101 83.3937 9.70291C83.3937 9.12716 83.6679 8.57883 84.134 8.22241C84.6275 7.82487 85.2992 7.61925 86.1217 7.61925C87.0127 7.61925 87.7118 7.81117 88.2327 8.20871C88.7262 8.55141 89.0141 9.12716 88.9867 9.73032L88.973 9.77145H86.9716C86.9716 9.51099 86.903 9.31907 86.766 9.18199C86.6289 9.04491 86.4233 8.97637 86.1354 8.97637C85.9161 8.97637 85.7378 9.0312 85.5871 9.15458C85.45 9.26424 85.3677 9.42874 85.3677 9.60695C85.3814 9.78516 85.4637 9.94966 85.6145 10.0456C85.9298 10.2238 86.2862 10.3335 86.6426 10.3746C87.2869 10.4706 87.9038 10.7173 88.4384 11.0874C88.8359 11.4164 89.0552 11.9099 89.0141 12.4309C89.0141 13.0203 88.7537 13.5138 88.219 13.8976C87.6022 14.3089 86.8619 14.5145 86.1217 14.4734C85.2169 14.4734 84.5041 14.2404 83.9832 13.788C83.4623 13.3356 83.2018 12.8147 83.2292 12.2527L83.2429 12.2115H85.121C85.1347 12.5268 85.2169 12.7461 85.4088 12.8832C85.587 13.0203 85.8475 13.0889 86.1765 13.0889C86.4507 13.0889 86.67 13.034 86.8071 12.9244C86.9579 12.8558 87.0264 12.6913 87.0264 12.4994Z" fill="white"/>
</svg>
