<svg width="118" height="20" viewBox="0 0 118 20" fill="none" xmlns="http://www.w3.org/2000/svg">
<path d="M11.5764 0.751312C18.9605 0.751476 22.1447 4.75656 22.4377 7.84311C22.7306 10.5584 21.6168 12.8634 19.6829 14.0746C18.0419 15.0903 16.0104 15.8128 13.7444 16.1058L14.3303 19.2318L8.68481 15.9496C3.56663 15.09 0.225986 12.1407 0.22583 8.56577C0.22583 6.39732 1.57402 4.26725 3.60571 2.82162C5.67645 1.37618 8.58766 0.751312 11.5764 0.751312ZM7.66821 3.40854C6.55469 3.40854 5.63614 3.74041 4.93286 4.48276C4.21028 5.14687 3.87825 6.02576 3.87817 7.08041C3.87817 7.8423 4.13197 8.52659 4.65942 9.05405C5.18688 9.58149 5.81259 9.87436 6.59399 9.87436C6.86743 9.8743 7.21911 9.81573 7.64868 9.67905C8.01977 9.52281 8.41038 9.38606 8.70337 9.19077C8.80096 9.13221 8.8986 9.09318 8.93774 9.09311C9.09403 9.09311 9.13306 9.19074 9.13306 9.32748C9.13303 9.40556 9.11351 9.46424 9.07446 9.56186C9.05504 9.58143 9.0549 9.62052 9.0354 9.65952L8.89868 10.0892C8.64476 10.7533 8.1174 11.3782 7.39478 11.9642C6.61336 12.5503 5.851 12.9417 5.06958 13.0785C4.95249 13.098 4.85469 13.1175 4.77661 13.1371C4.71809 13.1566 4.6594 13.1761 4.63989 13.1761C4.63683 13.1794 4.60083 13.2193 4.60083 13.3128C4.60088 13.5079 4.65958 13.5472 4.79614 13.5472H4.99146L5.67505 13.4496C7.31603 13.1956 8.66406 12.4723 9.77759 11.3197C10.8911 10.1671 11.4192 8.85807 11.4192 7.41245C11.4191 6.22098 11.0863 5.30315 10.3635 4.52182C9.64077 3.79911 8.7816 3.40858 7.66821 3.40854ZM15.8928 3.38901C14.7988 3.38901 13.8607 3.72091 13.1965 4.30698C12.4738 4.9907 12.1418 5.85077 12.1418 6.90561C12.1419 7.72587 12.3763 8.44857 12.9231 8.97592C13.4506 9.50338 14.0762 9.79623 14.8577 9.79623C15.1506 9.7962 15.4828 9.75714 15.9124 9.60092C16.342 9.44467 16.6936 9.30795 16.967 9.11264C17.0646 9.07362 17.1622 9.01513 17.2014 9.01498C17.3381 9.01498 17.3967 9.11264 17.3967 9.24936C17.3967 9.32749 17.3772 9.38607 17.3381 9.48373C17.3186 9.52279 17.3186 9.54234 17.2991 9.58139L17.1624 10.0111C16.9279 10.6948 16.3813 11.3205 15.6584 11.8871C14.877 12.4731 14.1147 12.8441 13.3333 13.0003C13.2162 13.0199 13.1184 13.0394 13.0403 13.0589C12.9623 13.0784 12.9231 13.098 12.9036 13.098C12.9011 13.1006 12.8645 13.1404 12.8645 13.2347C12.8645 13.4299 12.9037 13.469 13.0598 13.4691H13.2551L13.9387 13.3714C15.5797 13.137 16.9277 12.4137 18.0413 11.2415C19.1546 10.0891 19.6828 8.78074 19.6829 7.3353C19.6438 6.20224 19.3109 5.28371 18.5881 4.50229C17.8654 3.77965 16.9866 3.38904 15.8928 3.38901Z" fill="white"/>
<path d="M7.18006 3.8772C6.6526 3.8772 6.26189 4.07255 5.96886 4.46326C5.67582 4.85397 5.48047 5.38143 5.48047 6.00657C5.48047 6.86613 5.67582 7.60848 6.10561 8.17501C6.53539 8.76107 7.06285 8.9955 7.74659 8.9955C8.27405 8.9955 8.76243 8.80014 9.09454 8.40943C9.48525 8.01872 9.622 7.53034 9.622 6.96381C9.622 6.14331 9.38757 5.36189 8.89918 4.73676C8.43033 4.17023 7.8638 3.8772 7.18006 3.8772Z" fill="white"/>
<path d="M14.1936 4.46326C14.4866 4.07255 14.9164 3.8772 15.4048 3.8772C16.0885 3.8772 16.6551 4.11162 17.1434 4.73676C17.6318 5.36189 17.8663 6.14331 17.8663 6.96381C17.8663 7.54987 17.7295 8.01872 17.3388 8.40943C16.9481 8.80014 16.5183 8.9955 15.9909 8.9955C15.3071 8.9955 14.7796 8.76107 14.3499 8.17501C13.9201 7.58894 13.7247 6.86613 13.7247 6.00657C13.7052 5.38143 13.9006 4.85397 14.1936 4.46326Z" fill="white"/>
<path d="M77.7227 2.39245C79.8909 2.39249 81.6882 2.91966 83.0361 3.93542C84.384 4.95124 85.0673 6.29938 85.0674 7.9989C85.0674 9.83519 84.4035 11.3785 82.9971 12.6288C81.9617 13.586 80.5941 14.1922 78.9336 14.4071H75.8662C74.284 14.2117 72.9748 13.6641 71.9395 12.8632C70.5918 11.7692 69.9082 10.3038 69.9082 8.52624C69.9082 7.745 70.1035 6.98326 70.4355 6.20202C70.7872 5.42064 71.2558 4.79489 71.8418 4.26745C72.506 3.64233 73.3855 3.15424 74.4404 2.82214C75.4953 2.49004 76.6091 2.29477 77.7227 2.39245ZM77.0977 2.99792C75.6521 2.99792 74.5773 3.42755 73.7568 4.24792C72.9559 5.08792 72.5655 6.29942 72.5654 7.78405C72.5654 9.56174 73.0535 11.027 74.0693 12.121C75.0266 13.2345 76.3356 13.7616 77.9375 13.8592C79.3831 13.8592 80.5555 13.3712 81.415 12.453C82.2745 11.5349 82.7236 10.2843 82.7236 8.74108C82.7236 7.86219 82.5283 7.0028 82.1377 6.14343C81.747 5.28387 81.2189 4.59959 80.5352 4.1112C79.5781 3.38866 78.4062 2.99797 77.0977 2.99792Z" fill="white"/>
<path d="M36.0144 2.76371C36.0144 2.86138 36.0535 2.95906 36.1512 2.99814C36.2488 3.03721 36.4833 3.09581 36.8349 3.13488C37.421 3.23256 37.8507 3.36931 38.0852 3.56466C38.3196 3.76002 38.4173 4.15073 38.4173 4.67818V11.4961V12.2775C38.4173 12.7659 38.3196 13.1371 38.1828 13.3324C38.0461 13.5278 37.6945 13.7231 37.167 13.8599L36.874 14.0552L36.913 14.0943C36.9521 14.192 37.0498 14.2897 37.2061 14.2897H42.7151C43.1449 14.2897 43.3988 14.192 43.3988 14.0552C43.3988 13.8599 43.2035 13.8208 42.8714 13.8208C42.3439 13.8208 41.9141 13.7231 41.5625 13.4887C41.2304 13.2543 41.035 12.9026 40.9374 12.4729L40.8397 11.6133V4.36562C40.8397 3.87723 40.9374 3.54512 41.035 3.40838C41.1718 3.27163 41.5234 3.11535 41.9923 3.07628C42.129 3.07628 42.2267 3.03721 42.2853 2.9786C42.3244 2.93953 42.3244 2.88092 42.3244 2.78324C42.3244 2.6465 42.1876 2.64649 41.9337 2.64649C41.543 2.64649 36.327 2.6465 36.2293 2.60743C36.0535 2.52928 36.0144 2.56835 36.0144 2.76371ZM43.0081 2.91999C43.0081 2.68556 43.1449 2.58789 43.4379 2.58789C43.477 2.58789 45.0984 2.58789 47.1692 2.56835C50.7637 2.54882 55.6476 2.52928 55.8429 2.52928C56.2337 2.52928 56.4681 2.66603 56.4681 2.91999L56.5072 3.54513C56.5072 3.5842 56.5267 3.66234 56.5462 3.77956C56.5658 3.89677 56.5853 4.03351 56.6048 4.22887C56.6048 4.28748 56.6244 4.32655 56.6244 4.36562C56.6634 4.60005 56.7025 4.77587 56.7025 4.95169C56.7025 5.14704 56.6048 5.24472 56.4095 5.24472C56.2727 5.24472 56.1164 5.10797 56.0774 4.91261C55.9406 4.38515 55.6476 3.99445 55.2178 3.76002C54.788 3.52559 54.202 3.42791 53.3815 3.42791C52.2679 3.42791 51.6428 3.46698 51.3498 3.62327C51.1154 3.76002 50.9591 4.11166 50.9591 4.63912V11.0663C50.9591 12.0235 51.1544 12.7073 51.4865 13.098C51.8186 13.4887 52.4438 13.7231 53.3229 13.7817C53.5573 13.7817 53.7136 13.8794 53.7136 14.0748C53.7136 14.2115 53.5768 14.2701 53.3815 14.2701H53.0884L47.091 14.3092C46.798 14.3483 46.6613 14.3483 46.5636 14.3483C46.3292 14.3483 46.2315 14.2506 46.2315 14.1138C46.2315 13.9771 46.2706 13.9185 46.3292 13.8794C46.3487 13.8794 46.3682 13.8794 46.4073 13.8599C46.4854 13.8403 46.5831 13.8208 46.7199 13.8208C47.2473 13.7817 47.6771 13.6255 47.9701 13.3324C48.2632 13.0394 48.3999 12.6096 48.3999 12.1212V11.7305V4.15073C48.3999 3.72095 48.0678 3.46699 47.4818 3.46699C46.0752 3.46699 45.118 3.56466 44.5905 3.70141C44.2584 3.83816 43.9654 3.99444 43.8677 4.13119C43.77 4.26794 43.5746 4.65865 43.3793 5.28379L43.2816 5.51821C43.2425 5.75264 43.0863 5.85031 42.9495 5.85031C42.7151 5.85031 42.6174 5.81125 42.6174 5.61589C42.6174 5.49868 42.6565 5.32286 42.676 5.10797C42.676 5.04936 42.6955 4.99076 42.7151 4.93215L42.7542 4.20933L42.8909 3.42791L43.0081 2.91999ZM57.0151 5.86985C57.5035 5.01029 58.1286 4.26794 58.9491 3.70141C60.258 2.78324 61.8403 2.35346 63.6376 2.35346C64.9465 2.35346 66.0991 2.58789 67.0759 3.0372L67.7596 3.36931C67.8964 3.40838 68.0526 3.46699 68.1503 3.46699C68.2871 3.46699 68.4434 3.42791 68.4824 3.33024L68.7168 3.0372C68.7364 3.0372 68.7559 3.0372 68.7755 3.01767C68.8145 2.99813 68.8536 2.9786 68.9122 2.9786C69.1466 2.9786 69.2443 3.17395 69.2443 3.56466L69.4397 5.98707C69.4787 6.18242 69.4787 6.31917 69.4787 6.47545C69.4787 6.70988 69.3811 6.80756 69.1857 6.80756C69.049 6.80756 68.9903 6.76849 68.9513 6.6122C68.9122 6.37778 68.7168 6.02614 68.3652 5.59636C68.0331 5.16657 67.6815 4.77587 67.408 4.54144C66.1577 3.48652 64.8097 2.93953 63.3055 2.93953C61.9966 2.93953 60.8831 3.36931 60.0626 4.24841C59.2421 5.10797 58.8123 6.2801 58.8123 7.68666C58.8123 9.523 59.4961 10.9686 60.844 12.0821C61.8599 12.8636 62.9734 13.2933 64.1846 13.2933C64.9074 13.2933 65.6302 13.1566 66.4507 12.8636C67.2712 12.5705 67.8964 12.2775 68.3261 11.8477L69.0099 11.2617C69.1076 11.164 69.2052 11.1249 69.3029 11.1249C69.4397 11.1249 69.4983 11.164 69.4983 11.3203C69.4983 11.5547 69.2052 11.9063 68.6778 12.4338C67.2322 13.7427 65.3958 14.4069 63.2664 14.4069C61.2347 14.4069 59.5547 13.8794 58.2458 12.805C56.9369 11.75 56.3118 10.3435 56.3118 8.6439C56.2923 7.70619 56.5462 6.72941 57.0151 5.86985ZM108.804 2.76371C108.804 2.62696 108.667 2.56835 108.413 2.56835H103.724C103.529 2.56835 103.392 2.56835 103.392 2.7051C103.392 2.80278 103.49 2.90046 103.724 2.90046C104.682 2.93953 105.365 3.23256 105.698 3.68188C106.03 4.17027 106.186 5.02983 106.186 6.37778C106.186 7.45223 106.147 8.52668 106.108 9.67928C106.108 9.77695 106.108 9.85509 106.088 9.95277C106.088 10.2849 105.991 10.4802 105.854 10.4802C105.717 10.4802 105.365 10.2849 104.897 9.85509C104.897 9.85509 97.1215 2.76371 96.9847 2.66603C96.848 2.56835 96.6917 2.56835 96.4573 2.56835C96.3596 2.52928 92.8823 2.56835 92.8823 2.56835C92.726 2.56835 92.6088 2.60742 92.5502 2.68557V2.93953C92.6088 2.9786 92.6869 2.99814 92.8432 2.99814C94.4451 3.09581 95.2656 4.01398 95.2656 5.75264V9.42532L95.2265 11.457C95.2265 12.1798 95.1289 12.6682 94.8944 13.0589C94.66 13.4496 94.2693 13.6841 93.7809 13.7817C93.5856 13.8208 93.4879 13.9185 93.4879 14.0162C93.4879 14.1529 93.5856 14.2115 93.7809 14.2115H98.6062C98.8015 14.2115 98.9383 14.1138 98.9383 13.9771C98.9383 13.8403 98.8406 13.7817 98.6453 13.7427C97.4927 13.645 96.8089 13.3129 96.5745 12.6877C96.3401 12.1017 96.2424 10.91 96.2424 9.17135V5.88939V5.65496C96.2424 5.42053 96.3401 5.26425 96.4768 5.26425C96.5159 5.26425 96.6722 5.30332 96.8089 5.49868L106.42 14.1529C106.459 14.1724 106.479 14.192 106.499 14.2115C106.538 14.2506 106.577 14.2701 106.635 14.2897H106.987C107.046 14.2506 107.104 14.1724 107.104 14.0943L107.143 5.36193V4.93215C107.143 3.77955 107.573 3.09581 108.491 2.99814C108.511 2.99814 108.55 2.9786 108.569 2.9786C108.726 2.91999 108.804 2.90046 108.804 2.76371ZM108.413 5.61589C108.413 4.65865 108.804 3.87723 109.566 3.25209C110.171 2.76371 110.855 2.49021 111.636 2.33392H113.473C113.746 2.37299 114.02 2.45114 114.293 2.52928L115.016 2.76371C115.309 2.86138 115.543 2.90046 115.7 2.90046C115.797 2.90046 115.895 2.90046 115.993 2.86138L116.383 2.72463C116.481 2.68556 116.52 2.68557 116.579 2.68557C116.774 2.68557 116.813 2.78324 116.813 2.9786C116.813 2.9786 117.106 5.7331 117.106 5.77217C117.106 6.06521 117.009 6.16288 116.813 6.16288C116.677 6.16288 116.579 6.02614 116.52 5.83078C116.325 5.01029 115.797 4.32655 114.977 3.76002C114.156 3.17395 113.277 2.90046 112.379 2.90046C111.754 2.90046 111.226 3.09581 110.738 3.42791C110.249 3.76002 110.015 4.15073 110.015 4.63912C110.015 5.0689 110.21 5.42053 110.64 5.75264C110.933 5.98706 111.754 6.33871 113.16 6.76849C114.86 7.35455 115.954 7.88201 116.501 8.40947C117.126 9.0346 117.458 9.79649 117.458 10.7147V10.7537C117.458 11.7696 116.97 12.6291 116.11 13.352C115.192 14.0748 114.176 14.4655 112.965 14.4655C112.476 14.4655 111.715 14.3678 110.64 14.0748C110.347 14.0162 110.132 13.9576 109.937 13.9185C109.8 13.8794 109.683 13.8599 109.585 13.8403C109.253 13.8013 109.058 13.7427 108.999 13.7036C108.921 13.6645 108.354 11.6133 108.179 10.8709V10.363C108.237 10.2458 108.335 10.1872 108.472 10.1872C108.569 10.1872 108.608 10.2263 108.667 10.3826C108.999 11.3398 109.585 12.1603 110.464 12.844C111.343 13.5278 112.203 13.8599 113.121 13.8599C113.844 13.8599 114.469 13.6254 115.055 13.1761C115.583 12.7463 115.876 12.258 115.876 11.6719C115.876 11.2421 115.739 10.8514 115.446 10.5584C115.153 10.2653 114.664 9.97231 113.942 9.73789L112.34 9.15182C110.796 8.62436 109.78 8.0969 109.253 7.60851C108.706 7.06152 108.413 6.43638 108.413 5.61589ZM91.9836 14.0748C91.9836 13.8794 91.7883 13.8403 91.4562 13.8403C90.9287 13.8403 90.4989 13.7427 90.1473 13.5082C89.8152 13.2738 89.6198 12.9222 89.5222 12.4924L89.4245 11.6133V4.36562C89.4245 3.87723 89.4831 3.54512 89.6198 3.40838C89.7566 3.27163 90.1082 3.11535 90.5771 3.07628C90.7138 3.07628 90.8115 3.03721 90.8701 2.9786C90.9092 2.93953 90.9092 2.88092 90.9092 2.78324C90.9092 2.6465 90.7138 2.64649 90.4794 2.64649C90.0887 2.64649 84.9313 2.6465 84.775 2.60743C84.736 2.56835 84.6383 2.60743 84.6383 2.80278C84.6383 2.90046 84.6774 2.99813 84.775 3.0372C84.8727 3.07627 85.1071 3.13488 85.4588 3.17395C86.0448 3.27163 86.4746 3.40838 86.7091 3.60373C86.9435 3.79909 87.0412 4.1898 87.0412 4.71726V11.5351V12.3166C87.0412 12.805 86.9435 13.1761 86.8067 13.3715C86.67 13.5668 86.3183 13.7622 85.7909 13.8989L85.4979 14.0943V14.1334C85.5174 14.192 85.576 14.2506 85.6151 14.2701H91.7297C91.9055 14.231 91.9836 14.1529 91.9836 14.0748Z" fill="white"/>
<path d="M23.5315 2.60683C23.5315 2.60683 29.8614 2.56773 30.4866 2.70448C31.971 2.7045 33.1818 2.8031 34.0999 3.33046C35.018 3.85792 35.4485 4.54121 35.4485 5.40077C35.4485 6.41661 34.8618 7.08038 33.7483 7.47108C33.4955 7.56835 33.3588 7.66609 33.3577 7.70546C33.3186 7.8031 33.4555 7.86268 33.7483 7.90175C34.6079 7.99943 35.2921 8.33133 35.8196 8.81972C36.2102 9.17131 36.4446 9.60096 36.5422 10.1088V11.2416C36.4055 12.0816 35.9369 12.7659 35.1946 13.3129C34.2764 13.938 33.0259 14.2699 31.4436 14.2699H23.9807C23.9222 14.2308 23.8831 14.1527 23.8831 14.0746C23.8831 13.9379 23.9808 13.8793 24.176 13.8402C24.3127 13.8402 24.9376 13.84 25.2307 13.5082C25.3284 13.352 25.466 13.0198 25.4661 12.4926C25.4661 11.6526 25.4661 10.3434 25.4465 8.97597C25.4465 7.49133 25.427 5.9674 25.427 4.91249C25.427 4.61946 25.3675 4.1899 25.1331 3.89687C24.801 3.34987 23.9222 3.11464 23.6877 3.11464L23.1995 3.07558C23.0627 3.07557 22.9651 2.97795 22.9651 2.8412C22.9653 2.70467 23.0629 2.60684 23.2971 2.60683H23.5315ZM29.6067 8.3119C29.1183 8.31191 28.3957 8.31193 28.0637 8.70253C27.8294 8.99557 27.8293 9.75718 27.8293 10.3432C27.8098 10.812 27.8293 11.3596 27.8684 12.0238C27.8684 12.1995 27.8879 12.3755 27.9075 12.5707C27.9467 13.391 28.8262 13.6254 30.3303 13.5863C31.8342 13.5863 32.8888 13.2933 33.4163 12.7074C33.846 12.219 34.0999 11.6519 34.0999 10.9682C34.0997 9.62049 33.3773 8.80023 31.8733 8.50722C30.9942 8.37047 30.6616 8.3119 29.6067 8.3119ZM29.0803 3.27187C28.6115 3.27187 28.2981 3.2523 28.0833 3.42812C27.8491 3.62368 27.7903 4.11186 27.7903 4.58046V6.68983H27.8098C27.8098 7.02171 27.9077 7.27568 28.1028 7.41249C28.3372 7.54924 28.6896 7.6078 29.1584 7.6078H31.2874C32.4985 7.51012 33.0647 6.92443 33.0647 5.86952C33.0647 5.01003 32.7327 4.32664 32.0491 3.79921C31.3654 3.31088 30.5061 3.27188 29.3928 3.27187H29.0803Z" fill="white"/>
</svg>
