<svg width="54" height="54" viewBox="0 0 54 54" fill="none" xmlns="http://www.w3.org/2000/svg">
<path d="M45.6494 0.40918L53.5908 8.35059V52.1943L52.1943 53.5908H8.35059L0.40918 45.6494V1.80566L1.80566 0.40918H45.6494Z" fill="#222222" stroke="#333333" stroke-width="0.818182"/>
<path d="M12.567 25.4434C12.567 25.4434 25.5222 20.1428 30.0153 18.2764C31.7376 17.5299 37.5787 15.1408 37.5787 15.1408C37.5787 15.1408 40.2745 14.0958 40.0499 16.6339C39.9749 17.6791 39.3758 21.3372 38.7767 25.294C37.8781 30.8932 36.9046 37.0148 36.9046 37.0148C36.9046 37.0148 36.755 38.7319 35.482 39.0306C34.2088 39.3292 32.112 37.9854 31.7376 37.6867C31.4381 37.4627 26.1213 34.1032 24.1744 32.4609C23.6501 32.013 23.051 31.1171 24.2492 30.0719C26.945 27.6084 30.1651 24.5474 32.112 22.6065C33.0106 21.7105 33.9093 19.6201 30.1651 22.1584C24.8483 25.8165 19.6063 29.2507 19.6063 29.2507C19.6063 29.2507 18.4083 29.9973 16.1617 29.3253C13.9152 28.6534 11.2942 27.7576 11.2942 27.7576C11.2942 27.7576 9.49708 26.6376 12.5674 25.4434H12.567Z" stroke="white" stroke-width="2"/>
</svg>
