<svg width="94" height="24" viewBox="0 0 94 24" fill="none" xmlns="http://www.w3.org/2000/svg">
<g clip-path="url(#clip0_2001_1199)">
<path d="M34.1616 18.4064C33.3484 18.4064 32.6118 18.2767 31.9518 18.0174C31.3036 17.7464 30.7438 17.3457 30.2724 16.8153C29.8128 16.285 29.4592 15.6309 29.2117 14.853C28.9642 14.0634 28.8405 13.15 28.8405 12.1129C28.8405 11.0758 28.9642 10.1565 29.2117 9.35512C29.4592 8.54193 29.8128 7.86426 30.2724 7.32213C30.7438 6.76821 31.3036 6.34983 31.9518 6.06698C32.6118 5.78413 33.3484 5.6427 34.1616 5.6427C35.2694 5.6427 36.1887 5.87841 36.9194 6.34983C37.6501 6.82125 38.2335 7.53427 38.6695 8.48889L36.6719 9.54958C36.4951 8.99567 36.2064 8.55371 35.8057 8.22372C35.405 7.88194 34.8569 7.71105 34.1616 7.71105C33.2895 7.71105 32.5941 8.00569 32.0756 8.59496C31.5688 9.18423 31.3154 10.0092 31.3154 11.0699V13.0145C31.3154 14.087 31.5688 14.912 32.0756 15.4895C32.5941 16.0552 33.2895 16.338 34.1616 16.338C34.8569 16.338 35.4226 16.1494 35.8587 15.7723C36.3065 15.3952 36.6306 14.9297 36.831 14.3757L38.7226 15.4895C38.2747 16.4087 37.6796 17.1276 36.9371 17.6462C36.1946 18.153 35.2694 18.4064 34.1616 18.4064Z" fill="white"/>
<path d="M43.8854 18.4063C43.2254 18.4063 42.6302 18.2944 42.0999 18.0704C41.5813 17.8465 41.1335 17.5224 40.7563 17.0981C40.391 16.6739 40.1081 16.1671 39.9078 15.5778C39.7074 14.9768 39.6072 14.305 39.6072 13.5625C39.6072 12.82 39.7074 12.1541 39.9078 11.5649C40.1081 10.9756 40.391 10.4747 40.7563 10.0622C41.1335 9.63794 41.5813 9.31384 42.0999 9.08991C42.6302 8.86599 43.2254 8.75403 43.8854 8.75403C44.5454 8.75403 45.1405 8.86599 45.6709 9.08991C46.2012 9.31384 46.6491 9.63794 47.0144 10.0622C47.3915 10.4747 47.6803 10.9756 47.8806 11.5649C48.081 12.1541 48.1812 12.82 48.1812 13.5625C48.1812 14.305 48.081 14.9768 47.8806 15.5778C47.6803 16.1671 47.3915 16.6739 47.0144 17.0981C46.6491 17.5224 46.2012 17.8465 45.6709 18.0704C45.1405 18.2944 44.5454 18.4063 43.8854 18.4063ZM43.8854 16.5855C44.4864 16.5855 44.9578 16.4028 45.2996 16.0374C45.6414 15.6721 45.8123 15.1359 45.8123 14.4287V12.7139C45.8123 12.0186 45.6414 11.4883 45.2996 11.1229C44.9578 10.7576 44.4864 10.5749 43.8854 10.5749C43.2961 10.5749 42.8306 10.7576 42.4888 11.1229C42.147 11.4883 41.9761 12.0186 41.9761 12.7139V14.4287C41.9761 15.1359 42.147 15.6721 42.4888 16.0374C42.8306 16.4028 43.2961 16.5855 43.8854 16.5855Z" fill="white"/>
<path d="M50.9558 7.62297C50.4844 7.62297 50.1426 7.5169 49.9305 7.30476C49.7301 7.09262 49.6299 6.82155 49.6299 6.49156V6.138C49.6299 5.808 49.7301 5.53694 49.9305 5.3248C50.1426 5.11266 50.4844 5.00659 50.9558 5.00659C51.4154 5.00659 51.7513 5.11266 51.9635 5.3248C52.1756 5.53694 52.2817 5.808 52.2817 6.138V6.49156C52.2817 6.82155 52.1756 7.09262 51.9635 7.30476C51.7513 7.5169 51.4154 7.62297 50.9558 7.62297ZM49.8244 8.96651H52.0872V18.1945H49.8244V8.96651Z" fill="white"/>
<path d="M54.3496 18.1942V8.96617H56.6124V10.5042H56.7008C56.8894 10.0092 57.184 9.59669 57.5847 9.2667C57.9972 8.92492 58.5629 8.75403 59.2818 8.75403C60.2365 8.75403 60.9672 9.06634 61.4739 9.69097C61.9807 10.3156 62.2341 11.2054 62.2341 12.3604V18.1942H59.9713V12.5902C59.9713 11.9302 59.8534 11.4352 59.6177 11.1052C59.382 10.7752 58.9931 10.6102 58.451 10.6102C58.2152 10.6102 57.9854 10.6456 57.7615 10.7163C57.5494 10.7752 57.3549 10.8695 57.1781 10.9992C57.0131 11.117 56.8776 11.2702 56.7715 11.4588C56.6655 11.6356 56.6124 11.8477 56.6124 12.0952V18.1942H54.3496Z" fill="white"/>
<path d="M67.4135 18.4063C66.5296 18.4063 65.7871 18.259 65.186 17.9644C64.585 17.658 64.0546 17.2396 63.595 16.7092L64.9739 15.3657C65.3157 15.7546 65.6869 16.061 66.0876 16.2849C66.5001 16.5089 66.9715 16.6208 67.5019 16.6208C68.044 16.6208 68.4329 16.5265 68.6686 16.338C68.9161 16.1494 69.0399 15.8901 69.0399 15.5601C69.0399 15.2891 68.9515 15.0769 68.7747 14.9237C68.6097 14.7587 68.3209 14.6468 67.9085 14.5878L66.9892 14.4641C65.9874 14.3344 65.2214 14.0516 64.691 13.6155C64.1725 13.1677 63.9132 12.5195 63.9132 11.6709C63.9132 11.2231 63.9957 10.8224 64.1607 10.4688C64.3257 10.1035 64.5614 9.79704 64.8678 9.54955C65.1742 9.29027 65.5396 9.09581 65.9638 8.96617C66.3999 8.82474 66.8831 8.75403 67.4135 8.75403C67.8613 8.75403 68.2561 8.78938 68.5979 8.8601C68.9515 8.91902 69.2697 9.01331 69.5525 9.14295C69.8354 9.2608 70.0947 9.41401 70.3304 9.60258C70.5661 9.77936 70.7959 9.97972 71.0198 10.2036L69.6939 11.5295C69.4229 11.2467 69.0988 11.0109 68.7216 10.8224C68.3445 10.6338 67.932 10.5395 67.4842 10.5395C66.9892 10.5395 66.6297 10.6279 66.4058 10.8047C66.1937 10.9815 66.0876 11.2113 66.0876 11.4942C66.0876 11.8006 66.176 12.0363 66.3528 12.2013C66.5413 12.3545 66.8537 12.4665 67.2897 12.5372L68.2267 12.6609C70.2184 12.9438 71.2143 13.8512 71.2143 15.3834C71.2143 15.8312 71.12 16.2437 70.9314 16.6208C70.7546 16.9862 70.5013 17.3044 70.1713 17.5755C69.8413 17.8347 69.4406 18.041 68.9691 18.1942C68.5095 18.3356 67.991 18.4063 67.4135 18.4063Z" fill="white"/>
<path d="M78.3743 16.6567H78.2859C78.2034 16.8924 78.0914 17.1163 77.95 17.3285C77.8204 17.5288 77.6495 17.7115 77.4374 17.8765C77.237 18.0415 76.9895 18.1711 76.6949 18.2654C76.412 18.3597 76.082 18.4068 75.7049 18.4068C74.7503 18.4068 74.0196 18.0945 73.5128 17.4699C73.006 16.8453 72.7526 15.9555 72.7526 14.8005V8.96667H75.0154V14.5707C75.0154 15.2071 75.1392 15.6962 75.3867 16.038C75.6342 16.368 76.029 16.5329 76.5711 16.5329C76.795 16.5329 77.0131 16.5035 77.2252 16.4446C77.4491 16.3856 77.6436 16.2972 77.8086 16.1794C77.9736 16.0497 78.1091 15.8965 78.2152 15.7198C78.3213 15.5312 78.3743 15.3132 78.3743 15.0657V8.96667H80.6371V18.1947H78.3743V16.6567Z" fill="white"/>
<path d="M85.163 18.1948C84.3852 18.1948 83.8136 18.0003 83.4482 17.6114C83.0829 17.2225 82.9002 16.6745 82.9002 15.9673V5.11292H85.163V16.3916H86.3828V18.1948H85.163Z" fill="white"/>
<path d="M90.5372 18.1952C89.7594 18.1952 89.1642 17.9949 88.7517 17.5942C88.351 17.1817 88.1506 16.5983 88.1506 15.844V10.7704H86.7894V8.96719H87.4966C87.8383 8.96719 88.0681 8.89059 88.186 8.73738C88.3156 8.57238 88.3805 8.33078 88.3805 8.01257V6.43921H90.4135V8.96719H92.305V10.7704H90.4135V16.392H92.1636V18.1952H90.5372Z" fill="white"/>
<path d="M8.58929 -0.261841H24.6937V15.8426C24.6937 17.9058 23.8741 19.8845 22.4152 21.3434C20.9563 22.8023 18.9776 23.622 16.9144 23.622H0.809937V7.51751C0.809937 5.4543 1.62954 3.47559 3.08846 2.01668C4.54737 0.557767 6.52607 -0.261841 8.58929 -0.261841Z" fill="url(#paint0_linear_2001_1199)"/>
<path d="M19.6805 9.13645L18.0838 9.86811L16.9628 10.3819L16.9128 10.4044L15.3716 11.1005C15.3716 11.0945 15.3691 11.0885 15.3671 11.0825C15.2761 10.7033 15.1006 10.3495 14.8538 10.0475L14.7114 9.73617L16.2491 9.0315L17.3866 8.51025L18.9974 7.77209C19.0866 7.91136 19.1699 8.0538 19.2472 8.19939L19.668 9.11746L19.6805 9.13645Z" fill="white"/>
<path d="M19.9407 13.3557C19.8224 13.8593 19.6506 14.3488 19.4285 14.816L14.4343 13.9634L14.4813 13.688C14.8456 13.3921 15.1221 13.0022 15.2809 12.5605L19.9407 13.3557Z" fill="white"/>
<path d="M10.9373 14.1493L8.91977 15.5782L7.47745 16.5997C7.13308 16.2235 6.82906 15.8123 6.57037 15.3728L8.0052 14.3562L9.01323 13.6421L10.0557 12.9039L10.9373 14.1493Z" fill="white"/>
<path d="M11.1302 7.87355L10.5065 9.26589L9.59288 8.85659L8.43593 8.33833L6.80719 7.60817C7.10405 7.1679 7.44828 6.76149 7.83371 6.39624L9.61087 7.19237L10.9697 7.80208L11.1302 7.87355Z" fill="white"/>
<path d="M18.2104 13.0601C17.9665 14.0073 17.476 14.873 16.7888 15.5691C16.1015 16.2652 15.2422 16.7667 14.2982 17.0228C13.3541 17.2788 12.3591 17.2802 11.4144 17.0267C10.4696 16.7733 9.60889 16.2741 8.91977 15.5799C8.56023 15.2167 8.25247 14.8057 8.0052 14.3585L6.57037 15.375C7.30675 16.6299 8.40221 17.6354 9.71546 18.2619C11.0287 18.8884 12.4995 19.107 13.9382 18.8897C15.3769 18.6724 16.7175 18.029 17.7871 17.0426C18.8567 16.0561 19.6063 14.7719 19.9391 13.3554L18.2104 13.0601Z" fill="white"/>
<path d="M9.6102 7.19307C10.3103 6.68851 11.1185 6.3545 11.9706 6.21765C12.8226 6.0808 13.6948 6.14491 14.5177 6.40486C15.3406 6.66481 16.0913 7.11342 16.7101 7.71491C17.3289 8.3164 17.7986 9.05414 18.0817 9.86932L19.6785 9.13766C19.6755 9.13016 19.673 9.12267 19.67 9.11567L19.2492 8.1976C19.1702 8.05233 19.0869 7.9099 18.9993 7.7703C18.3496 6.75029 17.4563 5.90797 16.3999 5.31924C15.3435 4.73051 14.1572 4.41387 12.948 4.39786C11.7387 4.38184 10.5445 4.66696 9.4729 5.22751C8.4013 5.78806 7.48601 6.60643 6.80951 7.60888L8.43825 8.33903C8.76986 7.901 9.16484 7.51478 9.6102 7.19307Z" fill="white"/>
<path d="M7.41737 10.6226C7.47845 10.3086 7.5664 10.0005 7.68025 9.70153L6.081 8.98486C5.45154 10.5706 5.39673 12.3266 5.92607 13.9485L7.44336 12.874C7.2802 12.1333 7.27136 11.3669 7.41737 10.6226Z" fill="white"/>
<path d="M18.0026 9.65515L16.9016 10.2084L16.8536 10.2329L15.3433 10.991" fill="white"/>
<path d="M9.98318 12.943L9.00814 13.6337C8.76132 13.1504 8.60868 12.6247 8.55835 12.0844L9.10209 11.6996L9.98318 12.943Z" fill="white"/>
<path d="M10.7169 9.38961L10.0932 10.782L8.80084 10.2012C8.97661 9.71637 9.23872 9.26733 9.57448 8.87585L10.7169 9.38961Z" fill="white"/>
<path d="M16.9979 12.8529C16.7624 13.6862 16.2814 14.4292 15.6175 14.9851C14.9537 15.541 14.1377 15.884 13.2761 15.9695C12.4144 16.0549 11.547 15.8788 10.7869 15.4641C10.0267 15.0494 9.40916 14.4153 9.01464 13.6445C9.01232 13.6413 9.01047 13.6378 9.00914 13.634C8.62273 12.8742 8.47028 12.0168 8.57107 11.1703C8.67186 10.3238 9.02135 9.52617 9.57538 8.87826L9.59387 8.85727C10.0962 8.27836 10.7438 7.84381 11.4699 7.59838C12.196 7.35294 12.9745 7.3055 13.725 7.46092C14.4756 7.61635 15.1712 7.96903 15.7401 8.48265C16.309 8.99626 16.7308 9.65225 16.9619 10.3831L16.9119 10.405L15.3707 11.1007C15.3707 11.0947 15.3682 11.0887 15.3662 11.0827C15.2225 10.4782 14.866 9.94566 14.362 9.58231C13.858 9.21897 13.2401 9.04913 12.6212 9.10384C12.0023 9.15855 11.4237 9.43416 10.9913 9.8803C10.5588 10.3264 10.3014 10.9133 10.2659 11.5336C10.2305 12.1539 10.4195 12.7663 10.7984 13.2587C11.1772 13.7512 11.7207 14.0908 12.3293 14.2156C12.938 14.3404 13.5712 14.242 14.1133 13.9384C14.6554 13.6348 15.0701 13.1462 15.2817 12.562L16.9979 12.8529Z" fill="white"/>
</g>
<defs>
<linearGradient id="paint0_linear_2001_1199" x1="1.19176" y1="0.33388" x2="36.1514" y2="34.6463" gradientUnits="userSpaceOnUse">
<stop stop-color="#3B916F"/>
<stop offset="1" stop-color="#096AA5"/>
</linearGradient>
<clipPath id="clip0_2001_1199">
<rect width="92.5907" height="23.8838" fill="white" transform="translate(0.809814)"/>
</clipPath>
</defs>
</svg>
