<svg width="6" height="7" viewBox="0 0 6 7" fill="none" xmlns="http://www.w3.org/2000/svg">
<path d="M3.35 1C3.35 0.8067 3.1933 0.65 3 0.65C2.8067 0.65 2.65 0.8067 2.65 1L3 1L3.35 1ZM2.75251 6.24749C2.8892 6.38417 3.1108 6.38417 3.24749 6.24749L5.47487 4.0201C5.61156 3.88342 5.61156 3.66181 5.47487 3.52513C5.33819 3.38844 5.11658 3.38844 4.9799 3.52513L3 5.50503L1.0201 3.52513C0.883418 3.38844 0.66181 3.38844 0.525126 3.52513C0.388443 3.66181 0.388443 3.88342 0.525126 4.0201L2.75251 6.24749ZM3 1L2.65 1L2.65 6L3 6L3.35 6L3.35 1L3 1Z" fill="#EC361D"/>
</svg>
