<svg width="9" height="9" viewBox="0 0 9 9" fill="none" xmlns="http://www.w3.org/2000/svg">
<path d="M8.38045 5.21359C7.86787 7.26963 5.78543 8.5209 3.72914 8.00819C1.67371 7.49561 0.422446 5.41304 0.935252 3.35716C1.44761 1.30089 3.53005 0.0495282 5.5857 0.562109C7.64184 1.07469 8.89303 3.15749 8.38039 5.21362L8.38043 5.21359H8.38045Z" fill="#F7931A"/>
<path d="M6.34965 3.73821C6.42603 3.22747 6.03719 2.95293 5.50547 2.76978L5.67797 2.07793L5.25682 1.97299L5.0889 2.64662C4.97819 2.61901 4.86449 2.59299 4.75148 2.5672L4.92061 1.88912L4.49973 1.78418L4.32714 2.4758C4.23552 2.45494 4.14553 2.43432 4.05823 2.4126L4.05872 2.41042L3.47794 2.26539L3.36591 2.71521C3.36591 2.71521 3.67837 2.78683 3.67178 2.79124C3.84233 2.8338 3.87317 2.9467 3.86805 3.03618L3.67156 3.82435C3.6833 3.82734 3.69854 3.83165 3.71534 3.8384C3.70129 3.83492 3.68634 3.83111 3.67083 3.82739L3.39542 4.93151C3.37458 4.98333 3.32168 5.06108 3.20244 5.03156C3.20667 5.03767 2.89635 4.95517 2.89635 4.95517L2.68726 5.43725L3.23531 5.57387C3.33727 5.59944 3.43718 5.62619 3.53557 5.65135L3.3613 6.35113L3.78196 6.45607L3.95454 5.76372C4.06946 5.79491 4.18099 5.82369 4.29017 5.85082L4.11816 6.5399L4.53933 6.64484L4.71359 5.94638C5.43173 6.08229 5.97172 6.02749 6.19901 5.37793C6.38216 4.85496 6.18989 4.55331 5.81208 4.35659C6.08726 4.29313 6.29453 4.11214 6.3498 3.73827L6.34966 3.73817L6.34965 3.73821ZM5.38742 5.0875C5.25727 5.61047 4.37674 5.32777 4.09126 5.25687L4.32253 4.32979C4.60799 4.40105 5.52345 4.54209 5.38744 5.0875H5.38742ZM5.51767 3.73063C5.39894 4.20633 4.66607 3.96466 4.42833 3.90539L4.638 3.06458C4.87574 3.12384 5.64135 3.23445 5.51771 3.73063H5.51767Z" fill="white"/>
</svg>
