<svg width="9" height="8" viewBox="0 0 9 8" fill="none" xmlns="http://www.w3.org/2000/svg">
<circle cx="4.56658" cy="3.80804" r="3.74554" fill="#6FF1FD"/>
<path d="M6.26879 3.46708C6.26247 3.24345 6.2412 3.10088 6.16956 2.97921C6.06766 2.80617 5.88416 2.70987 5.51715 2.51728L5.17602 2.33826C4.87657 2.18111 4.72685 2.10254 4.56578 2.10254C4.40471 2.10254 4.25499 2.18111 3.95554 2.33826L3.61441 2.51728C3.2474 2.70987 3.0639 2.80617 2.962 2.97921C2.86011 3.15225 2.86011 3.36758 2.86011 3.79823V3.81819C2.86011 4.24884 2.86011 4.46418 2.962 4.63722C3.0639 4.81026 3.2474 4.90655 3.61441 5.09915L3.95554 5.27816C4.25499 5.43531 4.40471 5.51389 4.56578 5.51389C4.72685 5.51389 4.87657 5.43531 5.17602 5.27816L5.51715 5.09915C5.88416 4.90655 6.06766 4.81026 6.16956 4.63722C6.2412 4.51554 6.26247 4.37298 6.26879 4.14935M6.10082 3.04059L4.56571 3.80815M4.56571 3.80815L3.03061 3.04059M4.56571 3.80815V5.42854" stroke="black" stroke-width="1.02151" stroke-linecap="round"/>
</svg>
