<svg width="40" height="40" viewBox="0 0 40 40" fill="none" xmlns="http://www.w3.org/2000/svg">
<path fill-rule="evenodd" clip-rule="evenodd" d="M25.67 21.1L16.0987 30.675C15.61 31.1625 14.8187 31.1625 14.33 30.675C13.8425 30.175 13.8425 29.3875 14.33 28.9L23.2325 20L14.33 11.1C13.8425 10.6125 13.8425 9.82495 14.33 9.32495C14.8187 8.83745 15.61 8.83745 16.0987 9.32495L25.67 18.9C25.9688 19.2 26.0625 19.6125 25.9937 20C26.0625 20.3875 25.9688 20.8 25.67 21.1ZM20 0C8.955 0 0 8.95 0 20C0 31.05 8.955 40 20 40C31.045 40 40 31.05 40 20C40 8.95 31.045 0 20 0Z" fill="#98FF19"/>
</svg>
