<svg width="359" height="12" viewBox="0 0 359 12" fill="none" xmlns="http://www.w3.org/2000/svg">
<path d="M0.96 11.192L6.048 0.903999H7.472L2.384 11.192H0.96ZM13.9119 11.192L18.9999 0.903999H20.4239L15.3359 11.192H13.9119ZM26.8637 11.192L31.9517 0.903999H33.3757L28.2877 11.192H26.8637ZM39.8156 11.192L44.9036 0.903999H46.3276L41.2396 11.192H39.8156ZM52.7675 11.192L57.8555 0.903999H59.2795L54.1915 11.192H52.7675ZM65.7194 11.192L70.8074 0.903999H72.2314L67.1434 11.192H65.7194ZM78.6713 11.192L83.7593 0.903999H85.1833L80.0953 11.192H78.6713ZM91.6231 11.192L96.7111 0.903999H98.1351L93.0471 11.192H91.6231ZM104.575 11.192L109.663 0.903999H111.087L105.999 11.192H104.575ZM117.527 11.192L122.615 0.903999H124.039L118.951 11.192H117.527ZM130.479 11.192L135.567 0.903999H136.991L131.903 11.192H130.479ZM143.431 11.192L148.519 0.903999H149.943L144.855 11.192H143.431ZM156.383 11.192L161.471 0.903999H162.895L157.807 11.192H156.383ZM169.334 11.192L174.422 0.903999H175.846L170.758 11.192H169.334ZM182.286 11.192L187.374 0.903999H188.798L183.71 11.192H182.286ZM195.238 11.192L200.326 0.903999H201.75L196.662 11.192H195.238Z" fill="white" fill-opacity="0.6"/>
</svg>
