<svg width="29" height="32" viewBox="0 0 29 32" fill="none" xmlns="http://www.w3.org/2000/svg">
<g clip-path="url(#clip0_534_695)">
<mask id="mask0_534_695" style="mask-type:luminance" maskUnits="userSpaceOnUse" x="-16" y="-15" width="62" height="62">
<path d="M46 -15H-16V47H46V-15Z" fill="white"/>
</mask>
<g mask="url(#mask0_534_695)">
<path d="M5.89406 24.5235C5.31281 23.7485 4.73156 22.3922 3.56906 20.6485C2.98781 19.6797 1.24406 17.7422 0.662813 16.9672C0.275313 16.1922 0.275312 15.8047 0.469062 15.0297C0.662812 13.8672 1.82531 12.8985 3.18156 12.8985C4.15031 12.8985 5.11906 13.6735 5.89406 14.2547C6.28156 14.6422 6.86281 15.4172 7.25031 15.8047C7.63781 16.1922 7.63781 16.386 8.02531 16.7735C8.41281 17.3547 8.60656 17.7422 8.41281 16.9672C8.21906 15.9985 8.02531 14.4485 7.63781 12.8985C7.44406 11.736 7.25031 11.5422 7.05656 10.7672C6.86281 9.79848 6.66906 9.21723 6.47531 8.24848C6.28156 7.66723 6.08781 6.11723 5.89406 5.34223C5.70031 4.37348 5.70031 2.62973 6.47531 1.85473C7.05656 1.27348 8.21906 1.07973 8.99406 1.46723C9.96281 2.04848 10.5441 3.40473 10.7378 3.98598C11.1253 4.95473 11.5128 6.31098 11.7066 7.86098C12.0941 9.79848 12.6753 12.7047 12.6753 13.286C12.6753 12.511 12.4816 11.1547 12.6753 10.3797C12.8691 9.79848 13.2566 9.02348 14.0316 8.82973C14.6128 8.63598 15.1941 8.63598 15.7753 8.63598C16.3566 8.82973 16.9378 9.21723 17.3253 9.60473C18.1003 10.7672 18.1003 13.286 18.1003 13.0922C18.2941 12.3172 18.2941 10.7672 18.6816 9.99223C18.8753 9.60473 19.6503 9.21723 20.0378 9.02348C20.6191 8.82973 21.3941 8.82973 21.9753 9.02348C22.3628 9.02348 23.1378 9.60473 23.3316 9.99223C23.7191 10.5735 23.9128 12.511 24.1066 13.286C24.1066 13.4797 24.3003 12.511 24.6878 11.9297C25.4628 10.7672 28.1753 10.3797 28.3691 13.0922C28.3691 14.4485 28.3691 14.2547 28.3691 15.2235C28.3691 16.1922 28.3691 16.7735 28.3691 17.5485C28.3691 18.3235 28.1753 20.0672 27.9816 20.8422C27.7878 21.4235 27.2066 22.7797 26.6253 23.5547C26.6253 23.5547 24.4941 25.8797 24.3003 27.0422C24.1066 28.2047 24.1066 28.2047 24.1066 28.9797C24.1066 29.7547 24.3003 30.7235 24.3003 30.7235C24.3003 30.7235 22.7503 30.9172 21.9753 30.7235C21.2003 30.5297 20.2316 29.1735 20.0378 28.5922C19.6503 28.011 19.0691 28.011 18.6816 28.5922C18.2941 29.3672 17.3253 30.7235 16.5503 30.7235C15.1941 30.9172 12.4816 30.7235 10.5441 30.7235C10.5441 30.7235 10.9316 28.786 10.1566 28.011C9.57531 27.4297 8.60656 26.461 8.02531 25.8797L5.89406 24.5235Z" fill="white"/>
</g>
<mask id="mask1_534_695" style="mask-type:luminance" maskUnits="userSpaceOnUse" x="-16" y="-15" width="62" height="62">
<path d="M46 -15H-16V47H46V-15Z" fill="white"/>
</mask>
<g mask="url(#mask1_534_695)">
<path d="M5.89406 24.5235C5.31281 23.7485 4.73156 22.3922 3.56906 20.6485C2.98781 19.6797 1.24406 17.7422 0.662813 16.9672C0.275313 16.1922 0.275312 15.8047 0.469062 15.0297C0.662812 13.8672 1.82531 12.8985 3.18156 12.8985C4.15031 12.8985 5.11906 13.6735 5.89406 14.2547C6.28156 14.6422 6.86281 15.4172 7.25031 15.8047C7.63781 16.1922 7.63781 16.386 8.02531 16.7735C8.41281 17.3547 8.60656 17.7422 8.41281 16.9672C8.21906 15.9985 8.02531 14.4485 7.63781 12.8985C7.44406 11.736 7.25031 11.5422 7.05656 10.7672C6.86281 9.79848 6.66906 9.21723 6.47531 8.24848C6.28156 7.66723 6.08781 6.11723 5.89406 5.34223C5.70031 4.37348 5.70031 2.62973 6.47531 1.85473C7.05656 1.27348 8.21906 1.07973 8.99406 1.46723C9.96281 2.04848 10.5441 3.40473 10.7378 3.98598C11.1253 4.95473 11.5128 6.31098 11.7066 7.86098C12.0941 9.79848 12.6753 12.7047 12.6753 13.286C12.6753 12.511 12.4816 11.1547 12.6753 10.3797C12.8691 9.79848 13.2566 9.02348 14.0316 8.82973C14.6128 8.63598 15.1941 8.63598 15.7753 8.63598C16.3566 8.82973 16.9378 9.21723 17.3253 9.60473C18.1003 10.7672 18.1003 13.286 18.1003 13.0922C18.2941 12.3172 18.2941 10.7672 18.6816 9.99223C18.8753 9.60473 19.6503 9.21723 20.0378 9.02348C20.6191 8.82973 21.3941 8.82973 21.9753 9.02348C22.3628 9.02348 23.1378 9.60473 23.3316 9.99223C23.7191 10.5735 23.9128 12.511 24.1066 13.286C24.1066 13.4797 24.3003 12.511 24.6878 11.9297C25.4628 10.7672 28.1753 10.3797 28.3691 13.0922C28.3691 14.4485 28.3691 14.2547 28.3691 15.2235C28.3691 16.1922 28.3691 16.7735 28.3691 17.5485C28.3691 18.3235 28.1753 20.0672 27.9816 20.8422C27.7878 21.4235 27.2066 22.7797 26.6253 23.5547C26.6253 23.5547 24.4941 25.8797 24.3003 27.0422C24.1066 28.2047 24.1066 28.2047 24.1066 28.9797C24.1066 29.7547 24.3003 30.7235 24.3003 30.7235C24.3003 30.7235 22.7503 30.9172 21.9753 30.7235C21.2003 30.5297 20.2316 29.1735 20.0378 28.5922C19.6503 28.011 19.0691 28.011 18.6816 28.5922C18.2941 29.3672 17.3253 30.7235 16.5503 30.7235C15.1941 30.9172 12.4816 30.7235 10.5441 30.7235C10.5441 30.7235 10.9316 28.786 10.1566 28.011C9.57531 27.4297 8.60656 26.461 8.02531 25.8797L5.89406 24.5235Z" stroke="black" stroke-width="0.75" stroke-linecap="round" stroke-linejoin="round"/>
</g>
<mask id="mask2_534_695" style="mask-type:luminance" maskUnits="userSpaceOnUse" x="-16" y="-15" width="62" height="62">
<path d="M46 -15H-16V47H46V-15Z" fill="white"/>
</mask>
<g mask="url(#mask2_534_695)">
<path d="M21.9746 25.107V18.5195" stroke="black" stroke-width="0.75" stroke-linecap="round"/>
</g>
<mask id="mask3_534_695" style="mask-type:luminance" maskUnits="userSpaceOnUse" x="-16" y="-15" width="62" height="62">
<path d="M46 -15H-16V47H46V-15Z" fill="white"/>
</mask>
<g mask="url(#mask3_534_695)">
<path d="M18.1 25.107L17.9062 18.5195" stroke="black" stroke-width="0.75" stroke-linecap="round"/>
</g>
<mask id="mask4_534_695" style="mask-type:luminance" maskUnits="userSpaceOnUse" x="-16" y="-15" width="62" height="62">
<path d="M46 -15H-16V47H46V-15Z" fill="white"/>
</mask>
<g mask="url(#mask4_534_695)">
<path d="M14.2246 18.5195V25.107" stroke="black" stroke-width="0.75" stroke-linecap="round"/>
</g>
</g>
<defs>
<clipPath id="clip0_534_695">
<rect width="29" height="32" fill="white"/>
</clipPath>
</defs>
</svg>
