<svg width="40" height="40" viewBox="0 0 40 40" fill="none" xmlns="http://www.w3.org/2000/svg">
<path fill-rule="evenodd" clip-rule="evenodd" d="M14.33 18.9L23.9013 9.32495C24.39 8.83745 25.1813 8.83745 25.67 9.32495C26.1575 9.82495 26.1575 10.6125 25.67 11.1L16.7675 20L25.67 28.9C26.1575 29.3875 26.1575 30.175 25.67 30.675C25.1813 31.1625 24.39 31.1625 23.9013 30.675L14.33 21.1C14.0312 20.8 13.9375 20.3875 14.0063 20C13.9375 19.6125 14.0312 19.2 14.33 18.9ZM20 40C31.045 40 40 31.05 40 20C40 8.95 31.045 -7.82871e-07 20 -1.74846e-06C8.955 -2.71404e-06 2.71448e-06 8.95 1.74846e-06 20C7.82434e-07 31.05 8.955 40 20 40Z" fill="#98FF19"/>
</svg>
